<?xml version="1.0" encoding="UTF-8"?><svg id="Layer_2" xmlns="http://www.w3.org/2000/svg" viewBox="0 0 93.23 110.55"><defs><style>.cls-1{fill:#5e4352;stroke:#5e4352;stroke-miterlimit:10;stroke-width:.5px;}</style></defs><g id="Layer_1-2"><g><path class="cls-1" d="M46.61,110.3C21.05,110.3,.25,89.5,.25,63.94v-17.32C.25,21.05,21.05,.25,46.61,.25s46.36,20.8,46.36,46.36v17.32c0,25.56-20.8,46.36-46.36,46.36ZM46.61,1.17C21.55,1.17,1.17,21.55,1.17,46.61v17.32c0,25.06,20.39,45.45,45.45,45.45s45.45-20.39,45.45-45.45v-17.32C92.06,21.55,71.67,1.17,46.61,1.17Z"/><path class="cls-1" d="M42.47,90.43c-1.28,0-2.52-.56-3.72-1.11-1.14-.52-2.23-1.01-3.28-1.01h0c-1.05,0-2.13,.49-3.28,1-1.2,.54-2.43,1.1-3.71,1.1h0c-1.28,0-2.52-.57-3.72-1.11-1.15-.52-2.23-1.01-3.28-1.02h0c-1.05,0-2.13,.49-3.28,1-1.2,.54-2.43,1.09-3.71,1.09h-.02c-1.28,0-2.52-.57-3.72-1.12-1.15-.52-2.23-1.02-3.28-1.03v-1.06c1.29,0,2.53,.57,3.72,1.12,1.15,.52,2.23,1.02,3.28,1.03h.01c1.05,0,2.13-.49,3.28-1,1.2-.54,2.43-1.09,3.71-1.09h.01c1.28,0,2.52,.57,3.71,1.11,1.15,.52,2.23,1.01,3.28,1.02h0c1.05,0,2.13-.49,3.28-1,1.2-.54,2.43-1.1,3.71-1.1h0c1.28,0,2.52,.56,3.71,1.11,1.15,.52,2.23,1.01,3.28,1.01s2.13-.49,3.28-1.01c1.2-.54,2.43-1.1,3.71-1.1h0c1.28,0,2.51,.56,3.71,1.1,1.15,.52,2.23,1,3.28,1h0c1.05,0,2.13-.5,3.28-1.02,1.2-.55,2.43-1.11,3.71-1.11h.01c1.27,0,2.51,.55,3.7,1.09,1.15,.52,2.21,.99,3.29,1,1.05,0,2.13-.5,3.27-1.03,1.2-.55,2.43-1.11,3.71-1.12h.02c1.27,0,2.51,.55,3.7,1.08,1.15,.51,2.22,.98,3.3,.99v1.06c-1.27,0-2.53-.54-3.73-1.08-1.15-.51-2.23-.99-3.27-.99h-.02c-1.05,0-2.13,.5-3.28,1.03-1.2,.55-2.43,1.11-3.71,1.12h-.02c-1.28,0-2.51-.55-3.71-1.09-1.15-.51-2.21-1.02-3.28-1-1.05,0-2.13,.5-3.28,1.02-1.2,.55-2.43,1.11-3.71,1.11h0c-1.28,0-2.52-.56-3.71-1.1-1.14-.52-2.22-1-3.27-1h0c-1.05,0-2.13,.49-3.28,1.01-1.2,.54-2.44,1.1-3.72,1.1Z"/><path class="cls-1" d="M89.4,81.26H3.83c-.29,0-.52-.23-.52-.52s.23-.52,.52-.52H89.4c.29,0,.52,.23,.52,.52s-.23,.52-.52,.52Z"/><g><path class="cls-1" d="M32.27,65.94c-.12,0-.24,0-.36-.03-1.87-.34-3.94-2.89-3.95-4.86-.01-1.42-.03-2.85,0-4.27,.03-1.7,.6-3.15,1.59-4.08,.89-.84,2.14-1.24,3.57-1.18,.84,.04,1.68,.03,2.51,0h.25c1.43-.03,2.87-.01,4.3,0,2.42,.03,4.91,.06,7.35-.13,1.29-.1,1.55-.31,1.84-1.54l.11-.46c.46-1.91,.92-3.82,1.35-5.73,.66-2.98,1.41-6.35,3.77-8.98l.4-.45c1.04-1.19,2.21-2.53,4.22-2.64,.33,0,.53,.21,.55,.49,.01,.29-.21,.53-.49,.55-1.56,.08-2.5,1.15-3.49,2.28l-.41,.46c-2.18,2.43-2.87,5.52-3.53,8.51-.43,1.92-.89,3.84-1.35,5.75l-.11,.46c-.4,1.66-1.05,2.2-2.77,2.34-2.49,.19-5,.16-7.44,.13-1.42-.02-2.84-.03-4.27,0h-.25c-.86,.02-1.72,.04-2.58,0-1.17-.05-2.12,.25-2.81,.9-.78,.73-1.23,1.92-1.26,3.34-.03,1.41-.02,2.83,0,4.24,.01,1.48,1.72,3.6,3.1,3.85,.19,.03,.43,0,.69-.04,.22-.03,.45-.07,.67-.07h2.56c4.95-.01,9.89-.02,14.84,0,2.09-.02,3.78-.32,5.25-1.04,.3-.15,.62-.23,.92-.31,.12-.03,.25-.06,.37-.1,.27-.08,.56,.07,.65,.35s-.07,.56-.35,.65c-.14,.04-.27,.08-.41,.11-.26,.07-.51,.13-.72,.23-1.62,.8-3.41,1.18-5.71,1.15-4.95-.03-9.89-.02-14.83-.01h-2.56c-.17,0-.35,.03-.52,.06-.21,.03-.44,.06-.67,.06Z"/><path class="cls-1" d="M23.85,68.61c-.11,0-.23-.04-.32-.11-.23-.18-.26-.5-.09-.73,.86-1.09,1.29-2.42,1.36-4.19,.04-1.13-.2-2.2-.46-3.34-.15-.63-.29-1.27-.38-1.91-.04-.24-.08-.48-.13-.71-.17-.88-.35-1.78,0-2.82,.49-1.46,1.58-2.6,2.92-3.05,1.2-.41,2.43-.23,3.49,.48,.24,.16,.3,.48,.14,.72-.16,.24-.49,.3-.72,.14-.78-.53-1.69-.65-2.57-.36-1.03,.35-1.88,1.24-2.27,2.4-.26,.77-.11,1.5,.04,2.28,.05,.25,.1,.51,.14,.77,.09,.62,.23,1.22,.37,1.83,.26,1.15,.54,2.35,.49,3.62-.08,2-.58,3.52-1.58,4.8-.1,.13-.26,.2-.41,.2Z"/><path class="cls-1" d="M64.07,43.99c-1.25,0-2.68-.36-3.93-.67-.36-.09-.7-.18-1.01-.24-.28-.06-.46-.34-.39-.62s.33-.46,.62-.39c.32,.07,.67,.16,1.04,.25,1.77,.44,4.2,1.05,5.23,.24,.37-.29,.56-.78,.56-1.48,0-1.9-1.97-2.88-4.06-3.93-.54-.27-1.08-.54-1.57-.82-1.42-.71-2.08-2.21-1.7-3.9,.06-.28,.33-.46,.62-.39,.28,.06,.46,.34,.39,.62-.1,.46-.32,2,1.18,2.75,.5,.29,1.02,.54,1.54,.81,2.17,1.09,4.63,2.32,4.63,4.86,0,1.03-.32,1.81-.96,2.3-.58,.45-1.35,.61-2.2,.61Z"/><path class="cls-1" d="M60.88,60.09s-.04,0-.06,0c-.29-.03-.49-.29-.46-.57,.33-3.06,.23-6.16-.3-9.21-.13-.76-.38-1.56-.63-2.41-.53-1.75-1.08-3.56-.73-5.31-.02,.07-.22-.03-.43-.04-.29,0-.52-.24-.51-.53,0-.29,.22-.5,.53-.51,.5,0,.98,.22,1.25,.55,.18,.22,.24,.48,.19,.74-.3,1.49,.21,3.18,.71,4.8,.26,.84,.52,1.71,.66,2.54,.54,3.15,.65,6.35,.3,9.5-.03,.27-.25,.46-.52,.46Z"/><path class="cls-1" d="M58.03,80.39c-.29,0-.52-.23-.52-.52v-14.1c0-.1,0-.21,0-.31,.02-.26,.03-.48-.06-.63-.64-1.1,.06-1.92,.29-2.19,2.57-3,4.13-4.16,8.29-5.14,.29-.07,.56,.11,.62,.39s-.11,.56-.39,.62c-3.93,.92-5.25,1.9-7.74,4.8-.38,.45-.36,.68-.18,.99,.25,.42,.22,.86,.2,1.21,0,.09-.01,.17-.01,.26v14.1c0,.29-.23,.52-.52,.52Z"/><path class="cls-1" d="M31.82,80.39h0c-.29,0-.52-.24-.52-.52l.06-12.76v-.25c-.01-.5-.02-1.06,.32-1.6,.15-.24,.47-.32,.72-.16,.24,.15,.32,.47,.16,.72-.18,.28-.17,.63-.16,1.04v.27l-.06,12.76c0,.29-.23,.52-.52,.52Z"/><path class="cls-1" d="M35.35,78.72s-.08,0-.12-.01c-.28-.06-.45-.34-.39-.62,.25-1.08,.61-2.14,.97-3.17,.34-.98,.68-1.99,.92-3,.54-2.28,.69-4.3,.47-6.19-.03-.28,.17-.54,.46-.58,.29-.05,.54,.17,.58,.46,.23,2.01,.07,4.16-.49,6.55-.25,1.06-.61,2.1-.95,3.11-.34,1-.7,2.04-.94,3.07-.06,.24-.27,.4-.51,.4Z"/><path class="cls-1" d="M66.54,68.24c-.29,0-.52-.23-.52-.52,0-.92,.02-1.84,.03-2.76,.04-2.17,.08-4.41-.11-6.57-.03-.29,.19-.54,.47-.56,.27-.04,.54,.19,.56,.47,.2,2.21,.15,4.48,.11,6.68-.02,.92-.03,1.83-.03,2.74,0,.29-.23,.52-.52,.52Z"/></g><path class="cls-1" d="M60.58,50.98l-.35-.98c3.4-1.23,5.86-2.34,9.12-4.68,2.24-1.61,3.47-3.23,4.65-4.79,1.4-1.85,2.72-3.59,5.47-4.95,3.51-1.73,7.97-2.23,10.99-2.13l-.04,1.04c-2.88-.1-7.16,.38-10.49,2.02-2.53,1.25-3.72,2.83-5.1,4.65-1.17,1.55-2.51,3.31-4.87,5.01-3.36,2.41-5.89,3.55-9.38,4.81Z"/><path class="cls-1" d="M2.56,77.09l-.24-1.01c2.03-.48,2.58-.81,3.92-1.61,.94-.56,2.24-1.34,4.63-2.51,3.46-1.7,5.63-3.13,7.93-4.64,.78-.52,1.57-1.04,2.42-1.57,2.25-1.41,4.58-2.65,7.33-3.9l.43,.95c-2.71,1.23-5,2.45-7.21,3.84-.84,.53-1.62,1.04-2.4,1.56-2.22,1.46-4.52,2.98-8.04,4.71-2.36,1.16-3.63,1.92-4.56,2.47-1.35,.81-2.03,1.21-4.21,1.73Z"/><g><path class="cls-1" d="M75.23,40.28c-.07,0-.15-.02-.22-.05-.26-.12-.37-.43-.25-.69,.09-.2,.08-.45,.07-.74,0-.11,0-.21,0-.32,0-5.79,0-11.57,0-17.36v-4.34c0-.29,.23-.52,.52-.52s.52,.23,.52,.52v4.34c0,5.79,0,11.57,0,17.36v.27c.03,.37,.04,.79-.16,1.23-.09,.19-.28,.3-.47,.3Z"/><path class="cls-1" d="M70.44,32.88c-.23,0-.46,0-.7-.03-.29-.02-.5-.27-.48-.56,.02-.29,.22-.5,.56-.48,1.81,.13,3.24-.31,4.36-1.37,.75-.7,1.63-.7,2.34,0,1.07,1.04,2.43,1.48,4.36,1.36,.31-.04,.53,.2,.55,.49,.02,.29-.2,.53-.49,.55-2.24,.14-3.87-.39-5.15-1.65-.32-.32-.56-.32-.9,0-1.19,1.12-2.65,1.67-4.45,1.67Z"/><path class="cls-1" d="M79.93,28.33l.05-.52-.05,.52Zm-.08,0c-1.54-.16-3.14-.33-4.35-1.77-.21-.03-.42,.05-.59,.23-.99,1.04-2.3,1.5-3.99,1.44-.29-.01-.51-.25-.5-.54,.01-.29,.22-.52,.54-.5,1.39,.04,2.42-.3,3.2-1.12,.36-.38,.89-.59,1.29-.58,.34,.01,.64,.15,.85,.4,.94,1.12,2.2,1.25,3.66,1.41l.03,.53-.14,.51Z"/><path class="cls-1" d="M79.06,23.69h-.02c-1.35-.06-2.44-.44-3.32-1.16-.26-.21-.48-.21-.74,0-.89,.71-1.97,1.09-3.32,1.16-.28,0-.53-.21-.54-.49-.01-.29,.21-.53,.5-.54,1.14-.05,2-.35,2.72-.93,.64-.52,1.4-.52,2.04,0,.72,.58,1.58,.87,2.72,.93,.29,.01,.51,.26,.5,.54-.01,.28-.24,.49-.52,.49Z"/><path class="cls-1" d="M72.79,19.4c-.28,0-.51-.22-.52-.5-.01-.29,.21-.53,.5-.54,.5-.02,.96-.3,1.45-.63,.82-.55,1.52-.54,2.26,.03,.6,.47,1.04,.61,1.52,.5,.29-.07,.56,.1,.63,.38,.07,.28-.1,.56-.38,.63-1.05,.25-1.87-.27-2.41-.69-.35-.27-.56-.31-1.04,.01-.61,.41-1.22,.78-2,.81h-.02Z"/></g><g><path class="cls-1" d="M83.28,35.23c-.09,0-.18-.03-.25-.09-.16-.14-.19-.39-.05-.55,.04-.05,.05-.09,.03-.27,0-.07-.01-.14-.01-.2v-12.27c0-.22,.18-.39,.39-.39s.39,.18,.39,.39v12.27s0,.09,0,.14c.02,.21,.04,.53-.21,.83-.08,.09-.19,.14-.3,.14Z"/><path class="cls-1" d="M88,31.2l.04-.47-.04,.47Zm-.08,0c-1.52-.13-3.1-.26-4.3-1.41-.08-.08-.45-.05-.74,.18-.97,.82-2.23,1.2-3.91,1.14-.26,0-.46-.22-.45-.48,0-.26,.24-.46,.48-.45,1.41,.05,2.48-.25,3.28-.92,.55-.46,1.46-.65,1.99-.15,.96,.92,2.31,1.04,3.73,1.16l.04,.47-.12,.46Z"/><path class="cls-1" d="M87.11,27.46h-.02c-1.32-.05-2.39-.35-3.26-.92-.3-.19-.59-.19-.88,0-.87,.57-1.93,.87-3.25,.92-.27,.02-.47-.19-.48-.45,0-.26,.19-.47,.45-.48,1.15-.04,2.06-.29,2.78-.77,.61-.39,1.29-.39,1.9,0,.73,.47,1.64,.72,2.78,.77,.26,0,.46,.23,.45,.48-.01,.25-.22,.45-.47,.45Z"/><path class="cls-1" d="M80.85,23.99c-.25,0-.46-.2-.47-.45,0-.26,.2-.47,.45-.48,.54-.02,1-.25,1.51-.52,.79-.43,1.42-.42,2.12,.02,.62,.39,1.1,.52,1.62,.42,.26-.06,.5,.12,.55,.37,.05,.25-.12,.5-.37,.55-.98,.2-1.74-.19-2.3-.54-.41-.26-.69-.26-1.18,0-.59,.32-1.19,.62-1.93,.64h-.01Z"/></g></g></g></svg>