<?xml version="1.0" encoding="UTF-8"?><svg xmlns="http://www.w3.org/2000/svg" viewBox="0 0 42.88 50.75"><defs><style>.d{fill:#5e4352;stroke:#5e4352;stroke-miterlimit:10;stroke-width:.75px;}</style></defs><g id="a"/><g id="b"><g id="c"><g><path class="d" d="M21.44,50.38C9.82,50.38,.38,40.93,.38,29.31v-7.87C.38,9.82,9.82,.38,21.44,.38s21.06,9.45,21.06,21.06v7.87c0,11.61-9.45,21.06-21.06,21.06ZM21.44,.79C10.05,.79,.79,10.05,.79,21.44v7.87c0,11.39,9.26,20.65,20.65,20.65s20.65-9.26,20.65-20.65v-7.87C42.09,10.05,32.82,.79,21.44,.79Z"/><path class="d" d="M19.56,41.35c-.58,0-1.14-.26-1.69-.5-.52-.24-1.01-.46-1.49-.46h0c-.48,0-.97,.22-1.49,.46-.54,.25-1.11,.5-1.69,.5h0c-.58,0-1.14-.26-1.69-.51-.52-.24-1.01-.46-1.49-.46h0c-.48,0-.97,.22-1.49,.45-.54,.24-1.11,.5-1.69,.5h0c-.58,0-1.14-.26-1.69-.51-.52-.24-1.01-.46-1.49-.47v-.48c.59,0,1.15,.26,1.69,.51,.52,.24,1.01,.46,1.49,.47h0c.48,0,.97-.22,1.49-.45,.54-.24,1.11-.49,1.68-.49h0c.58,0,1.14,.26,1.69,.51,.52,.24,1.01,.46,1.49,.46h0c.48,0,.97-.22,1.49-.46,.54-.25,1.11-.5,1.69-.5h0c.58,0,1.14,.26,1.69,.5,.52,.24,1.01,.46,1.49,.46s.97-.22,1.49-.46c.54-.25,1.11-.5,1.69-.5h0c.58,0,1.14,.25,1.68,.5,.52,.23,1.01,.46,1.49,.46h0c.48,0,.97-.23,1.49-.46,.54-.25,1.11-.5,1.69-.51h0c.58,0,1.14,.25,1.68,.49,.52,.23,1,.45,1.5,.45,.48,0,.97-.23,1.49-.47,.54-.25,1.1-.51,1.69-.51h0c.58,0,1.14,.25,1.68,.49,.52,.23,1.01,.45,1.5,.45v.48c-.58,0-1.15-.25-1.7-.49-.52-.23-1.01-.45-1.49-.45h0c-.48,0-.97,.23-1.49,.47-.54,.25-1.1,.51-1.69,.51h0c-.58,0-1.14-.25-1.69-.5-.52-.23-1.01-.46-1.49-.45-.48,0-.97,.23-1.49,.46-.54,.25-1.11,.5-1.69,.5h0c-.58,0-1.14-.25-1.69-.5-.52-.23-1.01-.46-1.49-.46h0c-.48,0-.97,.22-1.49,.46-.54,.25-1.11,.5-1.69,.5Z"/><path class="d" d="M40.88,37.18H2c-.13,0-.24-.11-.24-.24s.11-.24,.24-.24H40.88c.13,0,.24,.11,.24,.24s-.11,.24-.24,.24Z"/><g><path class="d" d="M14.92,30.22c-.05,0-.11,0-.16-.01-.85-.16-1.79-1.31-1.8-2.21,0-.65-.01-1.29,0-1.94,.01-.77,.27-1.43,.72-1.85,.41-.38,.97-.56,1.62-.53,.38,.02,.76,.01,1.14,0h.11c.65-.01,1.3,0,1.95,0,1.1,.01,2.23,.03,3.34-.06,.59-.04,.7-.14,.84-.7l.05-.21c.21-.87,.42-1.73,.61-2.6,.3-1.35,.64-2.89,1.71-4.08l.18-.21c.47-.54,1.01-1.15,1.92-1.2,.15,0,.24,.09,.25,.22,0,.13-.09,.24-.22,.25-.71,.04-1.14,.52-1.59,1.04l-.19,.21c-.99,1.1-1.3,2.51-1.61,3.87-.19,.87-.4,1.74-.61,2.61l-.05,.21c-.18,.75-.48,1-1.26,1.06-1.13,.09-2.27,.07-3.38,.06-.65,0-1.29-.01-1.94,0h-.11c-.39,0-.78,.02-1.17,0-.53-.02-.96,.11-1.28,.41-.36,.33-.56,.87-.57,1.52-.01,.64,0,1.28,0,1.93,0,.67,.78,1.63,1.41,1.75,.09,.02,.2,0,.31-.02,.1-.02,.2-.03,.31-.03h1.16c2.25,0,4.5,0,6.74,0,.95-.01,1.72-.15,2.38-.47,.14-.07,.28-.1,.42-.14,.06-.01,.11-.03,.17-.04,.12-.04,.26,.03,.29,.16s-.03,.26-.16,.29c-.06,.02-.12,.03-.19,.05-.12,.03-.23,.06-.33,.11-.73,.36-1.55,.54-2.6,.52-2.25-.01-4.49,0-6.74,0h-1.16c-.08,0-.16,.01-.24,.03-.09,.01-.2,.03-.3,.03Z"/><path class="d" d="M11.1,31.43c-.05,0-.1-.02-.15-.05-.1-.08-.12-.23-.04-.33,.39-.5,.59-1.1,.62-1.91,.02-.51-.09-1-.21-1.52-.07-.29-.13-.58-.17-.87-.02-.11-.04-.22-.06-.32-.08-.4-.16-.81,0-1.28,.22-.66,.72-1.18,1.33-1.39,.54-.18,1.11-.1,1.58,.22,.11,.07,.14,.22,.06,.33-.07,.11-.22,.14-.33,.06-.35-.24-.77-.3-1.17-.16-.47,.16-.85,.56-1.03,1.09-.12,.35-.05,.68,.02,1.04,.02,.12,.05,.23,.06,.35,.04,.28,.1,.56,.17,.83,.12,.52,.24,1.07,.22,1.64-.04,.91-.26,1.6-.72,2.18-.05,.06-.12,.09-.19,.09Z"/><path class="d" d="M29.37,20.25c-.57,0-1.22-.16-1.78-.3-.16-.04-.32-.08-.46-.11-.13-.03-.21-.15-.18-.28s.15-.21,.28-.18c.14,.03,.3,.07,.47,.11,.81,.2,1.91,.48,2.38,.11,.17-.13,.25-.35,.25-.67,0-.86-.9-1.31-1.84-1.78-.25-.12-.49-.24-.71-.37-.64-.32-.95-1-.77-1.77,.03-.13,.15-.21,.28-.18,.13,.03,.21,.15,.18,.28-.05,.21-.15,.91,.53,1.25,.23,.13,.46,.25,.7,.37,.99,.49,2.1,1.05,2.1,2.21,0,.47-.15,.82-.43,1.05-.26,.21-.61,.28-1,.28Z"/><path class="d" d="M27.92,27.56s-.02,0-.03,0c-.13-.01-.22-.13-.21-.26,.15-1.39,.1-2.8-.14-4.19-.06-.35-.17-.71-.29-1.1-.24-.8-.49-1.62-.33-2.41,0,.03-.1-.02-.2-.02-.13,0-.23-.11-.23-.24,0-.13,.1-.23,.24-.23,.23,0,.45,.1,.57,.25,.08,.1,.11,.22,.09,.34-.14,.68,.1,1.44,.32,2.18,.12,.38,.24,.78,.3,1.15,.25,1.43,.29,2.88,.14,4.32-.01,.12-.12,.21-.23,.21Z"/><path class="d" d="M26.63,36.79c-.13,0-.24-.11-.24-.24v-6.4s0-.1,0-.14c0-.12,.01-.22-.03-.29-.29-.5,.03-.87,.13-1,1.17-1.36,1.88-1.89,3.77-2.33,.13-.03,.25,.05,.28,.18s-.05,.25-.18,.28c-1.79,.42-2.38,.86-3.51,2.18-.17,.2-.17,.31-.08,.45,.11,.19,.1,.39,.09,.55,0,.04,0,.08,0,.12v6.4c0,.13-.1,.24-.23,.24Z"/><path class="d" d="M14.72,36.79h0c-.13,0-.24-.11-.23-.24l.03-5.8v-.11c0-.23,0-.48,.15-.73,.07-.11,.21-.14,.33-.07,.11,.07,.14,.22,.07,.33-.08,.13-.08,.29-.07,.47v.12l-.03,5.8c0,.13-.11,.24-.24,.24Z"/><path class="d" d="M16.32,36.03s-.04,0-.05,0c-.13-.03-.21-.16-.18-.28,.11-.49,.28-.97,.44-1.44,.15-.45,.31-.91,.42-1.37,.24-1.03,.31-1.95,.21-2.81-.01-.13,.08-.25,.21-.26,.13-.02,.25,.08,.26,.21,.11,.91,.03,1.89-.22,2.98-.11,.48-.28,.95-.43,1.41-.16,.45-.32,.92-.43,1.39-.03,.11-.12,.18-.23,.18Z"/><path class="d" d="M30.5,31.27c-.13,0-.24-.11-.24-.24,0-.42,0-.83,.02-1.25,.02-.98,.04-2-.05-2.98-.01-.13,.08-.24,.21-.26,.12-.02,.24,.08,.26,.21,.09,1.01,.07,2.04,.05,3.03,0,.42-.02,.83-.02,1.25,0,.13-.11,.24-.24,.24Z"/></g><path class="d" d="M27.78,23.42l-.16-.44c1.54-.56,2.66-1.06,4.15-2.13,1.02-.73,1.57-1.47,2.11-2.18,.64-.84,1.24-1.63,2.48-2.25,1.59-.79,3.62-1.01,4.99-.97l-.02,.47c-1.31-.05-3.25,.17-4.77,.92-1.15,.57-1.69,1.28-2.32,2.11-.53,.71-1.14,1.5-2.21,2.28-1.53,1.1-2.68,1.61-4.26,2.19Z"/><path class="d" d="M1.42,35.29l-.11-.46c.92-.22,1.17-.37,1.78-.73,.43-.26,1.02-.61,2.1-1.14,1.57-.77,2.56-1.42,3.6-2.11,.36-.24,.71-.47,1.1-.71,1.02-.64,2.08-1.21,3.33-1.77l.2,.43c-1.23,.56-2.27,1.11-3.27,1.74-.38,.24-.74,.47-1.09,.71-1.01,.67-2.06,1.35-3.65,2.14-1.07,.53-1.65,.87-2.07,1.12-.61,.37-.92,.55-1.91,.78Z"/><g><path class="d" d="M34.44,18.56s-.07,0-.1-.02c-.12-.06-.17-.2-.11-.31,.04-.09,.04-.2,.03-.33,0-.05,0-.1,0-.14,0-2.63,0-5.26,0-7.89v-1.97c0-.13,.11-.24,.24-.24s.24,.11,.24,.24v1.97c0,2.63,0,5.26,0,7.89v.12c.01,.17,.02,.36-.07,.56-.04,.09-.13,.14-.21,.14Z"/><path class="d" d="M32.27,15.2c-.1,0-.21,0-.32-.01-.13,0-.23-.12-.22-.25,0-.13,.1-.23,.25-.22,.82,.06,1.47-.14,1.98-.62,.34-.32,.74-.32,1.06,0,.48,.47,1.11,.67,1.98,.62,.14-.02,.24,.09,.25,.22,0,.13-.09,.24-.22,.25-1.02,.06-1.76-.18-2.34-.75-.15-.14-.25-.14-.41,0-.54,.51-1.21,.76-2.02,.76Z"/><path class="d" d="M36.58,13.13l.02-.23-.02,.23Zm-.04,0c-.7-.07-1.42-.15-1.98-.81-.09-.01-.19,.02-.27,.1-.45,.47-1.04,.68-1.81,.65-.13,0-.23-.11-.23-.25,0-.13,.1-.23,.25-.23,.63,.02,1.1-.14,1.45-.51,.16-.17,.4-.27,.59-.26,.15,0,.29,.07,.38,.18,.43,.51,1,.57,1.66,.64v.24l-.05,.23Z"/><path class="d" d="M36.18,11.02h-.01c-.61-.03-1.11-.2-1.51-.53-.12-.1-.22-.1-.33,0-.4,.32-.9,.5-1.51,.53-.13,0-.24-.09-.25-.22,0-.13,.09-.24,.23-.25,.52-.02,.91-.16,1.23-.42,.29-.23,.64-.24,.93,0,.33,.26,.72,.4,1.23,.42,.13,0,.23,.12,.23,.25,0,.13-.11,.22-.24,.22Z"/><path class="d" d="M33.33,9.07c-.13,0-.23-.1-.24-.23,0-.13,.1-.24,.23-.24,.23,0,.43-.13,.66-.29,.37-.25,.69-.25,1.03,.01,.27,.21,.47,.28,.69,.23,.13-.03,.25,.05,.29,.17,.03,.13-.05,.25-.17,.29-.48,.12-.85-.12-1.09-.31-.16-.12-.25-.14-.47,0-.28,.19-.55,.35-.91,.37h0Z"/></g><g><path class="d" d="M38.1,16.27s-.08-.01-.11-.04c-.07-.06-.08-.18-.02-.25,.02-.02,.02-.04,.01-.12,0-.03,0-.06,0-.09v-5.57c0-.1,.08-.18,.18-.18s.18,.08,.18,.18v5.58s0,.04,0,.06c0,.1,.02,.24-.1,.38-.04,.04-.09,.06-.14,.06Z"/><path class="d" d="M40.24,14.44l.02-.21-.02,.21Zm-.04,0c-.69-.06-1.41-.12-1.95-.64-.04-.04-.21-.02-.34,.08-.44,.37-1.01,.54-1.78,.52-.12,0-.21-.1-.21-.22,0-.12,.11-.21,.22-.21,.64,.02,1.13-.11,1.49-.42,.25-.21,.66-.29,.9-.07,.44,.42,1.05,.47,1.69,.52l.02,.21-.05,.21Z"/><path class="d" d="M39.84,12.74h0c-.6-.02-1.08-.16-1.48-.42-.13-.09-.27-.09-.4,0-.4,.26-.88,.39-1.48,.42-.12,.01-.22-.09-.22-.2,0-.12,.09-.22,.2-.22,.52-.02,.93-.13,1.26-.35,.28-.18,.59-.18,.86,0,.33,.21,.74,.33,1.26,.35,.12,0,.21,.1,.2,.22,0,.11-.1,.2-.21,.2Z"/><path class="d" d="M36.99,11.16c-.11,0-.21-.09-.21-.21,0-.12,.09-.21,.21-.22,.25,0,.46-.11,.69-.24,.36-.19,.64-.19,.96,.01,.28,.18,.5,.23,.74,.19,.12-.03,.23,.05,.25,.17,.02,.11-.05,.23-.17,.25-.45,.09-.79-.09-1.05-.25-.19-.12-.31-.12-.53,0-.27,.15-.54,.28-.88,.29h0Z"/></g></g></g></g></svg>