<?xml version="1.0" encoding="UTF-8"?><svg xmlns="http://www.w3.org/2000/svg" viewBox="0 0 600.91 181.59"><defs><style>.d{fill:#fff;}.d,.e{stroke:#000;stroke-miterlimit:10;stroke-width:.75px;}</style></defs><g id="a"/><g id="b"><g id="c"><g><path class="e" d="M155.12,97.34c-1.07,0-3.18,0-4.02-.01-.46,.02-.91,.05-1.37,.05-.77,0-1.53-.03-2.3-.05v.22s-1.32,.04-1.47,.04c-.71,.01-1.41,.01-2.12,.02,.05,.89-.11,1.76-.09,2.61,.02,1.26-.08,2.51-.12,3.77-.04,1.23,.2,2.47-.28,3.82,1.83,.03,3.5,.07,5.17,.09,1.32,.02,2.64,.02,3.96,.02,.42,0,.84,0,1.25-.07,.52-.08,.88-.38,.97-.92,.1-.59,.21-1.18,.25-1.78,.12-2.09,.24-4.19,.29-6.28,.01-.5-.05-1-.13-1.52Zm-1.32,8.72c-.01,.23-.12,.45-.2,.72-.92,.43-1.89,.23-2.82,.28-.95,.04-1.91,.05-2.87,.06-.95,0-1.91,.09-2.88-.14-.1-.24-.25-.45-.27-.66-.19-2.51-.07-5.01,.07-7.51,0-.11,.08-.22,.17-.44,.67-.39,1.34-.29,1.99-.31,1.79-.05,3.58-.09,5.37-.13,.24,0,.48-.02,.72,0,.73,.06,1.07,.41,1.05,1.17-.08,2.33-.2,4.65-.32,6.98Z"/><path class="e" d="M600.53,98.73c-.21-.2-.41-.41-.57-.65-.36-.2-.73-.37-1.02-.63-1.69-1.52-3.37-3.06-5.01-4.63-2.63-2.53-5.21-5.13-7.85-7.65-3.81-3.64-7.68-7.22-11.5-10.85-4.69-4.46-9.36-8.94-14.04-13.41-.69-.66-1.35-1.36-2.04-2.02-2.18-2.06-4.37-4.1-6.55-6.16-1.83-1.73-3.63-3.48-5.47-5.2-3.11-2.91-6.24-5.78-9.34-8.69-2.14-2.01-4.22-4.08-6.39-6.06-9.79-8.9-19.76-17.9-27.52-28.69-.89-1.24-1.81-2.54-3.18-3.22-3.19-1.59-6.93,.99-8.96,3.93-4.57,6.62-9.86,12.29-15.15,18.4-1.02,1.18-2.17,2.26-3.06,3.53-1.32,1.89-3.09,3.32-4.69,5.09-.71-.37-1.37-.29-2.06,.02-.36,.16-.83,.09-1.24,.1-2.7,.07-5.39,.13-8.09,.19-3.35,.07-6.71,.21-10.06,.19-5.64-.03-11.27,.05-16.9,.21-3,.08-5.99,.13-8.99,.2-2.16,.06-4.31,.16-6.46,.2-4.97,.09-9.95,.04-14.92,.25-4.97,.22-9.94,.16-14.91,.46-3.82,.23-7.66,.15-11.5,.18-2.4,.02-4.8-.03-7.19,0-3.06,.03-6.11,.11-9.17,.14-3.23,.04-6.47,.03-9.7,.07-2.09,.03-4.18,.12-6.27,.17-2.75,.06-5.51,.15-8.26,.16-1.85,.01-3.7-.13-5.55-.12-3.65,0-7.31,.06-10.96,.11-2.4,.03-4.79,.08-7.19,.13-2.75,.06-5.51,.13-8.26,.21-2.45,.07-4.9-.12-7.36-.05-3.83,.11-7.67,.08-11.51,.16-3.23,.06-6.47-.24-9.69,.16-.24,.03-.48,.01-.72,0-2.81-.19-5.62-.09-8.43-.03-2.93,.07-5.86,.05-8.79,.06-2.7,.01-5.4,.03-8.09,.03-3.71,0-7.43,0-11.14,0-.36,0-.72,.05-1.08,.06-1.02,.04-2.03,.09-3.05,.09-.9,0-1.8-.07-2.7-.05-2.1,.05-4.19,.24-6.28,.18-1.33-.04-2.71,.18-4-.26-.26,0-.53,0-.79,0-1.18,0-2.36,0-3.54,0,.18,0-1.43,.04-1.46-.03,0-.01-.01-.03-.02-.04-1.42-.02-3.1-.05-3.11,0,.02-.09,.04-.18,.06-.27h-.23c-.44,.12-.85,.33-1.22,.68-.33,.31-.72,.56-1.07,.84-.24-.2-.4-.29-.5-.43-.93-1.25-1.83-2.51-2.76-3.75-.61-.81-1.23-1.62-1.88-2.4-.18-.22-.47-.36-.74-.48-.21-.1-.46-.12-.7-.17-12.6-2.51-25.1-5.58-37.65-8.3-11.33-2.45-23.62-3.91-34.55-7.75-.28-.1-.59-.1-.88-.16-1.52-.33-3.04-.65-4.56-1-.29-.07-.57-.19-.82-.35-.96-.61-1.93-1.2-2.84-1.88-1.03-.77-2.29-1.01-3.41-1.58-.25-.13-.59-.12-.88-.1-2.79,.18-5.44,.89-7.82,2.39-1.36,.86-2.64,1.86-3.9,2.87-1.31,1.05-2.5,2.23-3.43,3.66-.39,.6-.82,1.21-1.36,1.67-2.24,1.9-3.96,4.34-6.3,6.14-.19,.14-.32,.36-.48,.53-1.3,1.33-2.59,2.66-3.89,3.97-14.99,15.05-29.86,30.2-44.66,45.43-7.47,7.69-14.93,15.4-22.36,23.13-3.72,3.86-7.43,7.73-11.14,11.6-2.11,2.2-7.85,6.31-8.33,9.52-.03,.29-.03,.57,0,.86,.64,.69,1.19,1.22,1.67,1.81,.76,.93,1.5,1.87,2.19,2.85,.72,1.02,1.63,1.53,2.9,1.41,.35-.03,.72,0,1.07,.05,.73,.11,1,.42,1.09,1.19,.03,.24,.04,.48,.04,.72,0,2.88,0,5.75-.03,8.63-.03,2.46-.19,4.91-.17,7.37,.02,3.41-.03,6.82-.12,10.23-.13,5.21-.06,10.42-.08,15.63,0,1.38,.09,2.77-.08,4.13-.23,1.92-.01,3.83-.09,5.74-.03,.62,.25,1.03,.86,1.2,1.27,.37,2.55,.66,3.89,.62,2.45-.08,4.91-.17,7.36-.24,3.23-.09,6.47-.17,9.7-.25,1.02-.03,2.04-.05,3.05-.07,1.56-.04,3.11-.09,4.67-.1,1.14,0,2.28,.09,3.41,.06,3.29-.1,6.58-.24,9.86-.36,.66-.02,1.32-.04,1.97-.05,2.93-.05,5.85-.09,8.78-.16,2.69-.07,5.39-.23,8.08-.24,1.67,0,3.34,.23,5.01-.15,.34-.08,.72,.02,1.07,.01,1.2-.03,2.39-.06,3.59-.1,.6-.02,1.21-.17,1.79-.1,3,.36,5.99-.07,8.98-.1,2.5-.02,5-.51,7.53-.16,.17,.02,.36-.05,.54-.06,1.73-.04,3.47-.07,5.2-.1,1.44-.03,2.87-.05,4.31-.08,.48,0,.96-.05,1.44-.06,2.27-.06,4.54-.25,6.82-.02,.35,.03,.71-.08,1.07-.09,.78-.04,1.55-.07,2.33-.07,1.67,0,3.36,.14,5.02-.03,1.98-.21,3.94-.23,5.92-.26,2.16-.04,4.31-.09,6.47-.18,2.09-.08,4.18-.25,6.27-.32,1.91-.06,3.83-.05,5.75-.06,.78,0,1.56-.01,2.33,.01,2.04,.07,4.07,.02,6.1-.25,.82-.11,1.67-.11,2.51-.09,1.97,.04,3.94,.34,5.91-.1,.23-.05,.48-.04,.72-.05,3.17-.09,6.35-.18,9.52-.28,.66-.02,1.31-.13,1.97-.16,1.97-.11,3.94-.25,5.91-.28,1.25-.02,2.52,.27,3.76,.19,1.42-.09,2.82-.38,4.27-.22,.58,.06,1.18-.18,1.77-.22,1.49-.1,2.99,.23,4.47-.19,.16-.05,.36,0,.53,.04,.73,.19,1.41,.09,2.12-.15,.39-.13,.83-.11,1.24-.19,.64-.12,1.28-.26,1.92-.41,.35-.08,.69-.26,1.03-.28,.87-.04,1.62-.38,2.4-.71,3.41-1.46,6.84-2.91,10.26-4.37,3.47-1.48,6.95-2.93,10.41-4.43,2.91-1.27,5.8-2.6,8.7-3.89,.44-.19,.88-.42,1.34-.5,.62-.1,1.14-.33,1.58-.77,.45-.45,1-.61,1.63-.62,1.8-.02,3.6-.09,5.39-.12,1.38-.02,2.76,0,4.14-.04,1.85-.04,3.71-.17,5.56-.17,5.46,0,10.91-.03,16.36-.39,.85-.06,1.66-.07,2.43,.47,1-.72,2.11-.89,3.27-.85,.24,0,.47-.06,.71-.09,2.21-.24,4.42-.4,6.6,.21,.23,.06,.48,.07,.71,.07,2.28,0,4.55,.02,6.83,0,3.72-.04,7.43-.11,11.15-.15,5.27-.05,10.54,0,15.81-.1,6.35-.12,12.71-.17,19.06-.25,1.32-.02,2.63-.04,3.95-.08,2.51-.09,5.03-.23,7.54-.28,4.55-.1,9.11-.14,13.66-.22,5.51-.09,11.03-.19,16.54-.27,3.72-.05,7.43-.08,11.15-.11,1.92-.02,3.84,0,5.76-.02,3.3-.02,6.59-.05,9.89-.06,.53,0,1.09-.11,1.56,.26,.54,2.36,.67,6.48,.25,8.43,.74,1.17,.71,2.56,.79,3.93,.08,1.37,.17,2.73-.6,3.97,.61,.67,1.17,1.19,2.07,1,1.36-.29,2.73-.22,4.11-.21,3.18,.03,6.35-.03,9.53-.05,5.57-.03,11.15-.05,16.72-.08,5.64-.03,11.27-.08,16.91-.11,5.28-.02,10.55,0,15.83-.05,3.18-.02,6.35-.19,9.53-.19,10.37,0,20.75-.09,31.12-.34,5.99-.15,11.99-.12,17.99-.16,4.86-.03,9.71-.03,14.57-.08,4.32-.04,8.63-.17,12.95-.19,4.08-.03,8.15,.06,12.23,.04,3.42-.01,6.83-.1,10.25-.16,3.54-.06,7.07-.14,10.61-.21,.3,0,.6-.01,.9-.06,.95-.17,1.3-.64,1.26-1.63-.03-.96-.11-1.92-.07-2.87,.07-1.61,.26-3.22,.34-4.83,.06-1.25-.06-2.53,.09-3.76,0-.04,.01-.08,.02-.13,.06-1.38,.21-3.27,.22-3.51,.01-.27,.18-2.75,.26-4.11-.05-.32-.06-.65-.03-.99,.2-2.46-.28-4.89-.42-7.33-.13-2.39-.34-4.77-.19-7.17,.02-.36,.04-.73-.03-1.08-.32-1.6-.23-3.22-.22-4.84,0-1.56,.01-3.12,0-4.67,0-1.01-.05-2.03-.07-3.04,0-.36,0-.72,0-1.07-.02-2.87-.05-5.75-.06-8.62,0-.29,.04-.61,.49-.77,.15,.06,.36,.14,.57,.24,.27,.13,.52,.31,.79,.41,.45,.17,.87,.06,1.12-.29,0-.3,.02-.61,.03-.91-.07-.02-.13-.03-.2-.05-.08-.03,.03-1.3,.04-1.46,.02-.45,.04-.9,.06-1.34-.09-.14-.09-.3,.02-.42,.03-.59,.05-1.18,.08-1.77,.06-1.18,.12-2.35,.19-3.53-.01,.23,.11-1.46,.11-1.46,.06,.02,.11,.03,.16,.04-.04-.61-.02-1.22,.12-1.83,.03-.59,.07-1.18,.1-1.77ZM7.8,123.55c-1.33,.19-2.31-.32-3.08-1.41-.55-.78-1.2-1.49-1.77-2.26-.43-.58-.41-.91,.1-1.43,.68-.69,1.24-1.42,1.61-2.35,.19-.47,.65-.84,1.02-1.23,2.66-2.85,5.42-5.6,7.94-8.56,1.29-1.51,2.77-2.8,4.13-4.22,.82-.87,1.65-1.73,2.48-2.59,1.98-2.08,3.95-4.17,5.94-6.24,1.37-1.42,2.78-2.81,4.16-4.22,2.43-2.48,4.76-5.05,7.33-7.4,1.76-1.62,3.41-3.36,5.08-5.08,.62-.64,1.11-1.41,2.01-1.75,.21-.08,.38-.29,.54-.46,2.19-2.38,4.33-4.8,6.56-7.13,2.03-2.12,4.16-4.14,6.22-6.23,1.1-1.11,2.14-2.26,3.23-3.37,3.15-3.2,6.34-6.36,9.47-9.59,3.46-3.57,6.86-7.19,10.3-10.77,.79-.82,1.66-1.56,2.44-2.38,2.72-2.86,5.41-5.74,8.14-8.59,.99-1.04,2.07-1.99,3.07-3.02,1.47-1.5,2.9-3.03,4.36-4.53,.58-.6,1.15-1.21,1.93-1.59,.31-.15,.61-.43,.78-.72,.7-1.22,1.78-2.1,2.74-3.08,.74-.76,1.72-1.27,2.58-1.91,1.63-1.21,3.47-1.78,5.48-2.06,2.36-.32,4.26,.55,5.86,2.11,1.8,1.75,3.5,3.61,5.18,5.48,.96,1.06,1.8,2.24,2.68,3.37,.33,.42,.62,.89,.98,1.28,2.72,2.88,4.97,6.14,7.45,9.21,1.09,1.35,2.2,2.69,3.3,4.03,.38,.46,.78,.91,1.16,1.38,1.22,1.48,2.43,2.96,3.65,4.44,.19,.23,.45,.43,.57,.69,.72,1.49,2,2.53,3,3.79,1.46,1.82,2.99,3.59,4.5,5.36,2.14,2.5,4.31,4.98,6.43,7.49,1.08,1.28,2.15,2.58,3.12,3.95,1.64,2.3,3.54,4.37,5.34,6.54,2.98,3.59,5.97,7.18,8.9,10.83,1.5,1.87,3.03,3.71,4.53,5.57,1.31,1.62,2.63,3.25,3.85,4.94,.28,.39,.58,.76,.89,1.12,1.55,1.75,3.12,3.47,4.66,5.23,1.73,1.98,3.39,4.03,5.16,5.97,.96,1.05,1.89,2.13,2.84,3.2,.74,.84,1.57,1.58,2.51,2.27,1.38,1.01,2.73,2.14,3.65,3.67,.23,.38,.65,.79,1.06,.9,1.37,.37,1.78,1.44,2.16,2.6,.26,.81,.31,1.64,.27,2.48-.03,.66,0,1.32-.02,1.98-.03,.59-.39,.9-.95,.77-2.13-.48-4.29-.36-6.44-.31-4.13,.11-8.26,.35-12.4,.16-.24-.01-.47-.07-.73-.11-.47-.69-.44-1.31-.38-1.89,.15-1.5,.09-2.98-.14-4.47-.06-.41-.07-.84-.07-1.25,0-.46,.29-.78,.77-.85,.35-.05,.72-.05,1.07-.07,1.68-.06,3.35-.12,5.03-.19,.34-.02,.68-.11,1.18-.2-.17-.31-.23-.56-.39-.66-.54-.34-.84-.87-1.07-1.41-.39-.91-1.03-1.59-1.76-2.22-.94-.81-1.9-1.58-2.57-2.66-.28-.44-.78-.74-1.15-1.13-.41-.43-.78-.89-1.16-1.35-.15-.18-.27-.39-.44-.56-1.84-1.84-3.68-3.67-5.53-5.5-.68,.07-1.39-.07-2.04-.41-.43-.22-.85-.45-1.27-.68-.46,.19-.95,.22-1.46,.25-1.61,.09-3.22,.02-4.83,.26-1.95,.3-3.93,.13-5.88-.19-.29-.05-.59-.09-.89-.06-2.69,.2-5.38,.2-8.07,.17-3.89-.03-7.79,.01-11.68,.01-2.94,0-5.87-.03-8.81-.03-4.07,0-8.15,.03-12.22,.01-5.09-.02-10.19-.1-15.28-.11-2.82,0-5.63,.07-8.45,.08-2.1,0-4.2-.05-6.29-.05-6.78,0-13.55,.03-20.33,.04-6.35,.01-12.71,.03-19.06,.02-2.76,0-5.51-.1-8.27-.15-.24,0-.48,.02-.72,0-1.1-.07-1.82,.34-2.12,1.48-.11,.44-.41,.87-.72,1.21-.95,1.07-1.89,2.17-2.94,3.14-2.86,2.64-5.42,5.57-8.1,8.39-1.11,1.17-2.28,2.3-3.37,3.49-.52,.57-.97,1.22-1.38,1.87-.29,.46,0,1.01,.54,1.07,.42,.05,.84,.05,1.26,.06,1.68,.05,3.36,.1,5.04,.15,.42,.01,.84,.03,1.25,.09,.66,.11,.9,.39,.96,1.1,.02,.3,.01,.6,.01,.9-.01,1.55-.02,3.11-.03,4.66,0,.61-.18,.87-.75,1.07-.23,.08-.46,.15-.7,.17-2.14,.16-4.25,.43-6.43,.14-1.88-.24-3.82-.17-5.72-.06-1.26,.07-2.46,.17-3.73,.02-1.36-.16-2.74-.09-4.08-.48-.21-.06-.47,.04-.7,.07-1.37,.17-2.73,.34-4.1,.53Zm88.76,51.48c-.13,.82,.08,1.68-.23,2.41-.66,.49-1.33,.45-1.98,.44-1.98-.01-3.95-.06-5.93-.06-.9,0-1.8,.18-2.68,.1-1.88-.17-3.69,.36-5.54,.37-2.22,.02-4.44,.01-6.65,.06-1.8,.04-3.59,.17-5.39,.21-4.13,.1-8.27,.14-12.4,.26-2.57,.08-5.14,.3-7.72,.39-2.75,.1-5.51,.25-8.26,.16-2.52-.08-5.03,.05-7.54,.13-.76,.02-1.53,.02-2.29,.02h0l-.18,.02c-.43,.01-.86,.02-1.29,.03-.38,0-.76,0-1.14,0v.14c0,.13-10,.05-10,.04v-.03c-.24,0-.48,0-.71,0-.09,0-.19,0-.28,0-1.67,0-3.13-.02-3.57-.03-.02,.02-.04,.02-.07,.04-.09,.07-.21,.13-.32,.16-1.12,.32-2.19,.29-1.92-1.5,.26-1.67,.23-3.33,.14-5.01-.08-1.54,.03-3.1,.63-4.79,3.04-.23,5.94-.63,8.87-.65,1.5,0,3,.04,4.5,.01,2.34-.05,4.67-.15,7.01-.21,3.41-.09,6.83-.17,10.24-.23,1.38-.03,2.76-.02,4.13-.02,.48,0,.96,.06,1.44,.02,4.49-.36,8.99-.09,13.48-.33,2.39-.13,4.79-.29,7.18-.35,4.67-.12,9.35-.19,14.02-.25,.6,0,1.19,.08,1.79,.15,.94,0,2.02,0,3.06,0-.02-.04-.03-.07-.04-.11,.23-.02,.45-.03,.68-.03h.78c1.18-.03,2.36-.04,3.54-.04,1.18,0,2.36,0,3.54,0-.18,0,1.43-.04,1.46,.03,.2,.43,.25,.83,.24,1.31,0,.01-.11,.03-.31,.03,.03,2.37,.1,4.75-.28,7.11Zm1.02-32.12c-.08,2.33-.23,4.67-.3,7-.12,4.07-.19,8.14-.3,12.21-.02,.77-.13,1.53-.2,2.36-.44,.09-.78,.24-1.11,.2-1.04-.11-2.02,.16-3.02,.33-.59,.1-1.24,.34-1.76,.18-1.16-.35-2.26-.05-3.38,0-2.52,.09-5.03,.21-7.55,.26-5.45,.11-10.91,.15-16.37,.27-3.05,.07-6.11,.25-9.16,.32-2.69,.06-5.39,.04-8.09,.07-4.44,.06-8.87,.12-13.31,.2-3.06,.06-6.11,.16-9.17,.24-2.46,.06-4.91,.09-7.37,.16-.72,.02-1.43,.15-2.14,.2-.78,.05-1.56,.13-2.33,.08-1.01-.07-1.38-.57-1.29-1.55,.06-.65,.14-1.31,.29-1.95,.37-1.59,.4-3.2,.46-4.82,.16-4.61,.34-9.22,.5-13.83,.03-1.02-.04-2.04,0-3.05,.15-4.85,.32-9.7,.5-14.55,.02-.46,.15-.91,.23-1.32,.98-.41,1.89-.37,2.78-.39,4.8-.09,9.59-.14,14.39-.22,1.32-.02,2.64-.08,3.95-.14,.36-.02,.73-.05,1.06-.16,.61-.21,.98-.67,1.07-1.32,.03-.24,.03-.48,.03-.72-.04-2.69-.09-5.38-.13-8.07,0-.16-.02-.32-.04-.48-2.02-.02-4.18-.08-5.99-.87-.3,.16-.59,.26-.85,.25-.79-.01,2.52-6.16,4.99-7.45,.65-.96,1.41-1.87,1.56-2.05,.68-.81,1.5-1.64,2.36-2.29,.08-.24,.24-.45,.42-.65,.7-.74,1.39-1.49,2.09-2.23,.45-.48,.98-.9,1.37-1.42,1.32-1.73,1.44-1.51,3.36-1.53,3.78-.03,7.55,0,11.33-.04,3.36-.03,6.71-.11,10.07-.13,2.52-.02,5.04,.02,7.56,.04,3.18,.03,6.36,.1,9.53,.11,4.67,.03,9.35,.12,14.02,.02,7.8-.17,15.59,.07,23.38,.09,3.42,0,6.84,0,10.25,0,2.57,0,5.15-.01,7.72-.02,0-.01,0-.03,0-.04h0s.06,0,.09,0c.17-.01,.07,0,.34-.01,1.52-.04,3.05-.04,4.57-.05,1.44,0,2.88-.01,4.32,0,.37,0,.34,0,.51,.01,.06,0,.12,0,.18,.01h0s.03,.02,.04,.03c1.36-.01,2.72-.03,4.08-.04,.1,0,.2,.02,.3,.05,.64,0,1.27-.01,1.91-.02,.26-.11,.59-.08,.89-.09,1.5-.04,3,0,4.49-.06,2.16-.08,4.3,.08,6.45,.19,2.27,.11,4.55,.03,6.83,.03,.3,0,.6-.04,.88-.13,1.37-.44,2.29,.25,3.14,1.18,.64,.71,1.29,1.41,1.94,2.11,2.14,2.26,4.27,4.52,6.42,6.76,1.03,1.08,1.81,2.38,3.03,3.29,.11,.08,.1,.32,.15,.48-.47,.42-1.02,.37-1.55,.38-1.14,.02-2.28,0-3.41,.03-.39,.01-.78,.14-1.25,.22,.23,.55,.47,.96,.56,1.4,.09,.46,.03,.95,.05,1.43,.09,2.33,.18,4.67,.28,7,0,.11,.09,.21,.18,.38,.52,.24,1.12,.16,1.71,.15,5.46-.07,10.91-.14,16.36-.22,.6,0,1.19-.12,1.79-.16,.6-.04,1.2-.11,1.79-.08,.81,.04,1.18,.43,1.21,1.26,.04,1.14,.02,2.28,.01,3.42-.01,4.07-.03,8.15-.04,12.22,0,1.44,.05,2.88,.05,4.31,0,.66,.01,1.33-.11,1.97-.24,1.26-.21,2.52-.08,3.76,.29,2.63,.16,5.27,.19,7.9,.02,1.5,.02,2.99,0,4.49,0,.66-.06,1.32-.12,1.97-.02,.16-.15,.32-.27,.56-.86,.03-1.75,.03-2.63,.1-3.41,.3-6.83,.23-10.24,.29-3.54,.06-7.07,.19-10.61,.29-.54,.02-1.08,.02-1.62,.04-3.05,.08-6.11,.18-9.16,.25-2.46,.05-4.92,.04-7.37,.11-4.25,.11-8.51,.26-12.76,.37-1.02,.03-2.04,0-3.06,0-.18,0-.36,0-.54,0-4.84,.39-9.7,.14-14.55,.31-2.75,.1-5.51,.07-8.27,.08-.91,0-1.79,.06-2.64,.42-.15,.06-.34,0-.59,0-.39-1.46,.17-2.86,.14-4.27-.03-1.44,.02-2.88,.04-4.31,.02-1.44,.04-2.88,.07-4.31,.03-1.44,.09-2.88,.11-4.31,.02-1.44,0-2.88,.01-4.32,.01-1.44,.04-2.88,.06-4.31,.03-1.44,.06-2.88,.1-4.31,.04-1.44,.12-2.87,.16-4.31,.04-1.43,.04-2.87,.07-4.48-.48-.1-.76-.2-1.04-.21-2.88-.02-5.75-.01-8.63-.04-1.5-.01-2.99-.12-4.49-.12-2.15,0-4.31,.09-6.46,.1-1.14,0-2.31,.09-3.4-.17-.63-.15-1.19-.13-1.72-.01,0,.67-.02,1.34-.07,1.97,.09,.35,.1,.74,.08,1.17-.15,3.53-.22,7.06-.3,10.59-.03,1.32,.02,2.64-.02,3.95Zm24.76-5.42c-.44,3.41-.17,6.81-.06,10.22,.03,.89-.13,1.79-.2,2.68-.25,3.17-.03,6.34-.15,9.51-.05,1.25-.25,2.5-.38,3.74-.02,.18-.1,.35-.09,.53,.1,1.6,.16,3.21,.33,4.81,.09,.83,.14,1.64,.07,2.49-.13,1.71-.47,3.45,.22,5.14,.04,.09-.03,.23-.06,.43-1.07,.27-2.2,.29-3.32,.3-2.51,.03-5.03-.02-7.54,.24-1.01,.1-2.04,.06-3.05,.06-3,0-5.99,.01-8.99,.01-.24,0-.48,0-.72-.03-.55-.08-.88-.37-.92-.93-.06-.71-.07-1.44-.06-2.15,.11-4.43,.24-8.86,.37-13.29,.12-4.07,.25-8.14,.36-12.21,.11-3.83,.2-7.67,.29-11.5,.06-2.87,.1-5.75,.15-8.63,0-.12,0-.24,.02-.36,.11-1.74,.32-1.97,2.05-1.95,2.82,.03,5.63,.12,8.45,.14,3.24,.02,6.48,.01,9.71-.01,.84,0,1.67-.16,2.51-.21,1.08-.08,1.49,.25,1.44,1.3-.08,1.91-.24,3.82-.36,5.74-.05,.77-.07,1.55-.08,2.32,0,.54,.09,1.09,.03,1.62Zm114.5,23.54c-5.29,2.26-10.59,4.49-15.88,6.75-3.69,1.58-7.37,3.18-11.06,4.76-.77,.33-1.59,.56-2.32,.96-1.42,.78-2.96,1-4.52,.95-2.58-.09-5.12,.23-7.67,.43-.24,.02-.48,.07-.72,.03-6.58-.97-14.21,.33-20.87,.54-7.54,.24-15.08,.48-22.62,.72-9.26,.3-18.5,.78-27.75,.94-.84,0-1.27-10.2-.45-11.04,1.09-1.13,6.02-.84,9.33-.65h0c.23-.03,.45-.04,.68-.04,.26,0,.52,0,.78-.01,1.18-.02,2.36-.02,3.54-.03,1.18,0,2.36,0,3.54,0h.01c2.33-.07,4.66-.14,6.98-.21,16.63-.49,33.26-.93,49.9-.84,.9,0,1.8,.02,2.7-.04,1.43-.1,2.86-.25,4.29-.41,.59-.06,1.16-.32,1.82,.04,.64,1.23,.54,2.6,.45,3.97-.03,.48-.17,.95-.17,1.42,.01,1.3,.07,2.83,.06,3.75,.06-.33,.19-1.06,.67-3.16,.09-.41,0-.84-.02-1.25-.02-.3-.09-.59-.11-.89-.15-2.24,.49-3.32,2.56-4.19,2.04-.86,4.1-1.69,6.15-2.54,6.42-2.66,12.84-5.33,19.26-7.98,.54-.22,1.11-.39,1.89-.67,.08,.54,.16,.83,.15,1.12-.02,1.38-.06,2.75-.09,4.13q-.04,1.5,.52,2.86c-.34,.19-.67,.42-1.03,.57Zm1.59-41.63c-.14,5.33-.28,10.65-.44,15.98-.13,4.31-.3,8.62-.46,12.93-.03,.83-.12,1.66-.18,2.37-.2,.19-.28,.33-.38,.34-1.25,.17-2.35,.63-3.43,1.33-.94,.61-2.09,.89-3.13,1.33-.99,.42-1.98,.84-2.96,1.29-1.47,.66-2.93,1.36-4.41,2.02-2.36,1.04-4.72,2.07-7.09,3.08-2.37,1.01-4.75,2-7.13,2.99-.15,.06-.35,.04-.63,.06-.13-.3-.34-.61-.38-.93-.07-.65-.07-1.32-.03-1.97,.3-4.61,.19-9.22-.03-13.83-.01-.3-.09-.61-.04-.9,.61-3.58,.03-7.18,.17-10.76,.07-1.97,.1-3.96,.03-5.93-.09-2.46,0-4.9,.12-7.35,.01-.29,.08-.59,.14-.99,5.84-2.86,12.88-2.94,19.16-4.28,2.34-.5,11.01-4.09,11.12-.18,.03,1.14,0,2.28-.02,3.41Zm-.63-6.6c-2.24,.1-4.34,.87-6.52,1.24-1.59,.27-3.17,.61-4.76,.94-1.11,.23-2.22,.44-3.31,.8-.8,.26-1.71,.54-2.64,.26-.38-.11-.83-.02-1.24,.05-1,.18-2,.4-2.99,.62-.29,.06-.61,.1-.85,.26-.68,.45-1.37,.57-2.2,.52-.76-.05-1.52,.25-2.14,.79-1.02,.88-2.24,.99-3.61,.99-.08-.32-.26-.64-.18-.86,.22-.65-.11-1.11-.56-1.67,.2-.07,.38-.13,.56-.19-.11-.76-.16-1.64-.16-2.52-.39-.53-.78-1.07-1.17-1.6-.04-.05-.07-.09-.11-.15-2.36-4.13-6.54-7.61-9.75-11.11-4.43-4.83-8.89-9.63-13.19-14.57-9.82-11.27-19.57-22.75-28.74-34.54-.75-.93-1.56-1.82-2.33-2.73-1.77-2.11-3.54-4.22-5.31-6.33-2.11-2.52-4.23-5.04-6.32-7.58-.61-.74-1.13-1.54-1.72-2.29-1.23-1.54-2.48-3.07-3.74-4.59-.8-.96-1.65-1.89-2.48-2.83-.16-.18-.33-.36-.45-.56-1.15-2.12-2.99-3.73-4.31-5.72-.26-.39-.68-.67-1.02-1.01-.68-.67-1.36-1.32-1.88-2.15-.47-.75-1.12-1.39-1.96-2.4,.67-.02,1.01-.09,1.32-.02,3.4,.74,6.79,1.51,10.18,2.27,3.57,.8,7.14,1.58,10.71,2.38,3.45,.78,6.89,1.59,10.34,2.35,2.63,.58,5.28,1.09,7.92,1.64,1.06,.22,2.11,.46,3.16,.7,2.57,.58,5.14,1.18,7.71,1.74,3.28,.71,6.57,1.4,9.85,2.1,2.52,.54,5.03,1.09,7.55,1.63,2.34,.5,4.68,1.02,7.03,1.47,1,.19,1.77,.65,2.39,1.45,.47,.62,1,1.19,1.49,1.79,.23,.28,.48,.54,.65,.85,1.38,2.52,2.77,5.03,4.08,7.59,.54,1.06,.87,2.22,1.31,3.33,.13,.33,.25,.68,.43,.98,1.53,2.58,2.85,5.26,3.94,8.05,.09,.22,.16,.45,.27,.66,1.54,2.91,3.07,5.81,4.62,8.71,1.78,3.32,3.58,6.63,5.36,9.95,.48,.9,.89,1.83,1.35,2.73,.35,.69,.64,1.39,1.19,1.99,.39,.42,.54,1.05,.79,1.6,.34,.76,.56,1.59,1.26,2.14,.13,.1,.26,.29,.28,.45,.21,1.72,1.35,3.04,1.97,4.58,.63,1.54,1.54,2.97,2.31,4.45,.96,1.86,1.92,3.72,2.86,5.59,.48,.96,.92,1.95,1.42,2.9,.3,.58,.69,1.11,1.04,1.67,.25,.4,.54,.77,.75,1.19,.86,1.7,1.86,3.33,2.51,5.14,.26,.72,.76,1.35,1.15,2.02,.11,.2,.22,.4,.3,.61-.12-.73-.19-1.59-.21-2.47-1.59-2.94-2.73-6.39-4.17-9.26-2.24-4.46-4.47-8.91-6.71-13.37-.06-.07-.12-.13-.19-.2-.6-.62-.86-1.28-.88-1.9-3.85-7.58-7.69-15.16-11.54-22.74-2.05-4.05-4.11-8.09-6.16-12.14-1.59-3.13-4.08-6.47-5.08-9.83,.77-1.53,2.05-2.12,3.65-2.23,.9-.06,1.79-.19,2.68-.26,.35-.03,.71,.03,1.07,.07,.83,.1,1.65,.28,2.48,.32,2.21,.1,4.43,.19,6.64,.21,4.13,.04,8.27,.02,12.4,.02,2.22,0,4.44,0,6.66-.02,1.08-.02,2.15-.16,3.23-.17,2.99-.02,5.99,0,8.98,.02,3.05,.01,6.11,.05,9.16,.03,1.73-.01,3.47-.15,5.2-.18,1.62-.03,3.24,.01,4.85,0,3.24-.01,6.48-.13,9.71-.04,4.85,.13,9.7-.03,14.55-.02,2.39,0,4.79-.1,7.18-.13,1.02-.01,2.04,.06,3.05,.06,1.62-.01,3.23-.06,4.85-.09,.66-.01,1.31,0,1.97,0,.84-.01,1.67-.04,2.51-.07,.12,0,.24-.04,.36-.04,2.94-.02,5.87-.05,8.81-.05,1.68,0,3.36,.1,5.03,.08,3.6-.03,7.19-.09,10.79-.17,1.44-.03,2.87-.08,4.31,.01,.95,.06,1.91-.21,2.86-.19,3.36,.06,6.71-.1,10.06-.19,3.17-.08,6.35,.01,9.53,.03,.12,0,.24,.02,.36,0,2.33-.15,4.66-.19,7-.2,4.43-.01,8.87-.08,13.3-.2,2.93-.08,5.86-.28,8.8-.42,1.02-.05,2.04-.06,3.06-.08,3.59-.07,7.19-.12,10.78-.22,1.73-.05,3.47-.21,5.2-.24,2.45-.05,4.91-.03,7.36-.03,2.58,0,5.15,.07,7.73,.02,3.11-.06,6.23-.21,9.34-.32,.3-.01,.61-.09,.9-.05,2.7,.4,5.38-.07,8.07-.18,1.25-.05,2.51,.04,3.77,.07,.48,.01,.96,.09,1.44,.07,2.03-.1,4.06-.23,6.1-.33,1.07-.05,2.13-.15,3.13,.01,.36,.48,.08,.76-.15,1.03-1.29,1.5-2.6,2.98-3.89,4.48-1.68,1.95-3.34,3.92-5.03,5.87-1.1,1.27-2.21,2.52-3.32,3.78-.99,1.12-2.01,2.21-2.97,3.36-1.66,1.97-3.22,4.02-5.11,5.79-.52,.49-.92,1.1-1.39,1.64-1.3,1.49-2.63,2.95-3.93,4.44-1.93,2.21-3.81,4.46-5.76,6.65-1.51,1.7-3.12,3.31-4.64,5.01-2.43,2.73-4.79,5.52-7.22,8.24-1.19,1.33-2.21,2.83-3.64,3.94-.28,.22-.52,.51-.7,.81-.98,1.67-2.33,3.03-3.61,4.46-1.51,1.7-3,3.42-4.5,5.13-.24,.27-.45,.57-.72,.8-2.25,1.86-3.92,4.2-5.51,6.59-.41,.61-.5,1.45-.66,2.21-.14,.63-.04,1.31-.39,1.96-.3,.05-.59,.12-.88,.14-1.86,.08-3.71,.16-5.57,.21-.33,0-.66,.02-.98,0,0,.02,.01,.04,.02,.06-.01-.03-1.31,.04-1.46,.04-1.18,.02-2.36,.02-3.54,.03-1.06,0-2.11,0-3.17,0l-.03,.05c-2.08,.07-4.23,.17-6.38,.21-3.24,.06-6.48,.05-9.71,.12-2.94,.07-5.87,.23-8.8,.31-2.39,.06-4.79,.02-7.18,.1-3.77,.12-7.54,.33-11.31,.45-1.8,.06-3.59-.01-5.39,0-.72,0-1.43,.1-2.15,.15-.54,.04-1.07,.08-1.61,.1-2.4,.07-4.79,.13-7.19,.18-1.2,.02-2.4,0-3.6,0-4.13,.06-8.27,.13-12.4,.21-1.26,.03-2.52,.06-3.77,.21-1.5,.18-2.99,.1-4.49,.05-.77-.02-1.55,.05-2.32,.07-.29,0-.59,0-.88-.01-.66-.03-1.32-.13-1.97-.07-2.69,.22-5.38,.13-8.07,.3-.95,.06-1.91-.03-2.87-.08-1.97-.12-3.95-.19-5.91,.12-.41,.06-.83,.13-1.25,.13-3.06,0-6.11-.02-9.17-.04-.42,0-.85-.09-1.26-.04-2.69,.33-5.39,.25-8.08,.21-4.38-.05-8.74,.39-13.11,.29-1.13-.02-2.27,.13-3.41-.06-.34-.06-.71,.05-1.07,.08-.65,.05-1.29,.09-2.08,.14,.14-.55,.35-.98,.63-1.31-.18-.35-.33-.85-.43-1.45,.05,.3-.16,.7-.46,.82-.33,.13-.56-.05-.74-.32-.06-.1-.16-.17-.26-.26-.53-.03-.35,.53-.6,.74-.69,.58-1.41,1.14-2.36,1.19Zm23.04,43.6c-.22,.03-.41,.21-.46,.43-.02,.37-.05,.74-.13,1.1-.06,.05-.13,.07-.19,.1,0,.15,.02,.29,.02,.44,0,0-1.39,0-3.13,0v.48c0,.06-5.94-.01-8.67-.08-.87,0-1.73-.01-2.6-.02-1.18-.02-2.36-.03-3.53-.06,.11,0-.23-.01-.6-.03-.58,.18-1.15,.4-1.7,.72-.14,.08-.33,.1-.6,.17-.11-.35-.29-.68-.29-1,0-1.79,.03-3.59,.1-5.38,.03-.74,.43-1.03,1.2-1.04,4.61-.08,9.21-.15,13.82-.25,1.73-.04,3.47-.15,5.2-.22,.23,0,.46,0,.92,.01-.06,1.61,.22,3.12,.21,4.6,.13,0,.27,0,.4,.02,.11,0,.12,.01,.04,.02Zm14.3,1.34c-.54,.1-.99,.25-1.45,.26-2.33,.06-4.66,.09-7,.13-.6,.01-1.19,.07-1.79,.1-.89,.05-1.78,.15-2.66-.08-.57-.71-.49-1.5-.5-2.27-.03-1.91-.01-3.83-.05-5.74-.09-4.84-.23-9.69-.28-14.53-.06-4.84-.04-9.69-.05-14.53,0-.65-.09-1.32,.35-2.12,.44-.05,.85-.13,1.25-.13,3.53-.03,7.07,0,10.6-.07,1.75-.04,2.1,.48,2.07,2.1-.08,4.97-.15,9.93-.2,14.9-.04,3.95-.04,7.9-.07,11.85-.02,2.75-.05,5.5-.09,8.26,0,.59-.08,1.18-.14,1.87Zm1.56-17h-.08s.07-4.09,.16-7.03c-.02,0-.04,0-.06,0-.15-.01,.04-3.85,.19-6.76-.03,0-.06-.01-.09-.02-.08-.03,0-1.3,.01-1.46,.02-1.18,.06-2.36,.1-3.53,.02-.66,.05-1.33,.07-1.99-.1-.28-.26-.54-.48-.78-.24-.27-.52-.51-.69-.82-.37-.63-.94-.91-1.63-.97-.83-.08-1.67-.17-2.51-.18-2.16-.01-4.31,.04-6.47,.03-1.32,0-2.63-.14-3.94-.14-.49,0-.99,.03-1.37,.29-.02,1.1-.06,2.8-.1,4.42,0,.03,0,.07,0,.1,.11,5.69,.17,11.37,.25,17.06,.05,3.59,.09,7.18,.13,10.78,0,.29-.07,.58-.11,.91-.32,.09-.59,.21-.88,.24-.48,.05-.96,.04-1.44,.04-5.52,.08-11.03,.16-16.55,.23-.53,0-1.06-.05-1.66-.08-.12-.55-.31-1-.3-1.46,.08-2.99,.21-5.98,.3-8.97,.05-1.74-.05-3.48,.09-5.21,.24-3.1,.2-6.2,.21-9.3,0-.54,.03-1.08,.05-1.62,.01-.35,.08-.67,.16-.98,0-.09,0-.18,0-.28v-.26c0-.59,.03-1.18,.08-1.77-.02-.01-.04-.02-.07-.04-.03-.17-.17-.46-.13-.73,.25-1.7,.09-3.46,.5-5.17,.46-.08,.8-.18,1.15-.19,2.52-.06,5.04-.09,7.55-.14,5.81-.12,11.63-.26,17.44-.38,3.18-.06,6.35-.07,9.53-.15,6.83-.18,13.66-.4,20.49-.6,4.97-.14,9.95-.29,14.92-.42,4.38-.11,8.75-.18,13.13-.3,5.45-.14,10.9-.32,16.35-.47,1.56-.04,3.12-.01,4.67-.06,4.13-.13,8.26-.3,12.4-.44,1.32-.04,2.64-.02,3.95-.05,5.51-.14,11.02-.3,16.53-.43,3.29-.08,6.59-.11,9.88-.19,4.43-.11,8.87-.25,13.3-.37,.66-.02,1.32-.03,1.99,.39,.37,.81,.55,1.73,.68,2.62-.01,.02-.03,.03-.04,.04,.11,.19,.22,.37,.31,.56-.23,.02-.45,.03-.68,.03h-.2c.03,.08,.06,.15,.1,.22-.23,.02-.45,.03-.68,.03h-.78c-.19,.02-.37,.02-.56,.02-.04,.02-.09,.03-.13,.06-.95,.56-1.97,.46-2.97,.56-.95,.1-1.92-.04-2.87,.4-.44,1.75-.26,3.55-.35,5.33-.09,1.79-.06,3.59-.09,5.48,.16,.06,.36,.22,.57,.23,2.58,.05,5.16,.1,7.73-.22,.17-.02,.34-.1,.63-.19,.32-1.35-.16-2.77,.13-4.19,.26-1.3-.09-2.71,.2-4.08,.19,.08,.31,.1,.4,.16,.74,.48,1.03,.5,1.56,.02,.39-.35,.74-.74,1.06-1.06,.52,.1,.56,.41,.57,.7,.08,2.63,.12,5.27,.23,7.9,.12,2.99,.3,5.97,.45,8.96,.03,.54,.11,1.08,.09,1.61-.12,2.65,.27,5.26,.58,7.87,.16,1.3,.37,2.6,.06,4.01-.35,.05-.69,.13-1.03,.14-3.41,.01-6.83,0-10.24,.03-5.81,.05-11.62,.13-17.43,.19-.84,0-1.67-.1-2.51-.09-4.79,.08-9.59,.2-14.38,.26-2.64,.03-5.27-.07-7.91-.05-4.07,.04-8.15,.16-12.22,.22-2.1,.03-4.19-.01-6.29,.02-2.45,.04-4.91,.14-7.36,.18-5.87,.08-11.75,.11-17.62,.21-3.72,.06-7.43,.24-11.15,.32-5.39,.11-10.79,.16-16.18,.25-1.74,.03-3.48,.07-5.21,.1-.6,.01-1.2,.03-1.8,0-.59-.02-.96-.08-1.2-.24-.04,0-.09,0-.13,.01,0,.02,0,.03-.01,.03v-.03c-.09,.01-.17,.02-.26,.03,0,0,0-.31,.01-.77-.03-.16-.05-.35-.07-.57,0-.07,0-.15,0-.22h-.18s.08-4.89,.18-7.83Zm126.82-16.18c-.02,.4-.12,.79-.19,1.24-2.29-.18-4.47,.62-6.75,0-.06-.17-.2-.39-.19-.61,.1-2.63,.22-5.25,.35-7.88,0-.11,.08-.22,.17-.42,.28-.06,.62-.17,.96-.18,1.02-.05,2.03-.05,3.05-.07,.83-.02,1.69,.14,2.43-.91,.13,.61,.23,.87,.23,1.14-.02,2.03-.06,4.06-.08,6.09,0,.54,.05,1.08,.02,1.61Zm6.34,32.12c-.25,0-.58,.08-.82-.03-.85-.39-1.75-.4-2.64-.38-2.1,.05-4.19,.13-6.29,.17-1.67,.03-3.35,0-5.03,.01-5.21,.07-10.42,.13-15.63,.24-4.73,.1-9.46,.27-14.19,.36-3.29,.06-6.59,.02-9.89,.02-3.05,0-6.1,.24-9.16,.09-1.01-.05-2.03,.16-3.04,.18-1.19,.02-2.39-.06-3.58-.05-2.22,.01-4.43,.06-6.65,.08-5.57,.05-11.13,.34-16.71,.15-2.51-.08-5.03,0-7.54,.07-2.09,.07-4.18,.12-6.28,.03-5.68-.22-11.37,.04-17.05,.12-1.59,.02-6.98,.9-8.16-.16-.94-.85-.75-4.15-.48-5.28,.09-.39,.33-.65,.73-.69,.48-.04,.96-.02,1.44-.02,4.61-.03,9.23,.06,13.84-.12,4.43-.17,8.87-.17,13.3-.2,5.45-.04,10.9-.13,16.35-.2,3.71-.05,7.42-.12,11.14-.18,6.65-.11,13.3-.22,19.95-.31,2.76-.04,5.51-.02,8.27-.06,2.46-.04,4.91-.13,7.37-.17,6.05-.1,12.1-.24,18.15-.16,3.89,.05,7.78-.21,11.68-.28,3.17-.06,6.35-.04,9.53-.06,.18,0,.36,0,.54,.03,.67,.08,.98,.33,1,1.03,.06,1.79,.06,3.59,.07,5.38,0,.1-.11,.2-.21,.37Zm185.89,15.33c-1.17,.36-2.38,.25-3.55,.23-5.76-.09-11.51,.15-17.26,.29-4.37,.1-8.75,0-13.13,.02-4.55,0-9.11-.04-13.65,.07-3.65,.09-7.3,0-10.96,0-3.23,0-6.47,.2-9.7,.23-4.08,.04-8.15-.02-12.23-.01-2.46,0-4.91,.03-7.37,.05-3,.02-5.99,.02-8.99,.04-4.49,.04-8.99,.09-13.48,.12-.6,0-1.2-.08-1.79-.09-1.14-.01-2.27,0-3.41,.02-.3,0-.6,.07-.9,.07-2.09-.02-4.19-.06-6.28-.06-1.98,0-3.95,.03-5.93,.03-2.33,0-4.67-.09-7,0-2.04,.07-4.07-.05-6.1-.09-3.35-.06-6.71,.07-10.07,.07-1.38,0-2.75-.13-4.13-.14-6.05-.03-12.11-.04-18.16-.03-2.58,0-5.15,.06-7.73,.07-.47,0-.94-.07-1.6-.13-.21-1.96-.28-3.73-.3-5.63,.57-.08,1.03-.18,1.49-.2,4.73-.16,9.46-.34,14.2-.44,3.71-.08,7.43-.05,11.15-.11,3.6-.05,7.19-.15,10.79-.22,4.49-.09,8.99-.18,13.48-.24,4.61-.06,9.23-.03,13.84-.11,6.29-.11,12.59-.3,18.88-.43,2.93-.06,5.87-.06,8.81-.13,3.6-.08,7.19-.22,10.78-.3,4.26-.1,8.51-.17,12.77-.28,2.34-.06,4.67-.18,7.01-.24,5.45-.14,10.91-.28,16.36-.41,4.13-.1,8.27-.17,12.4-.28,4.43-.12,8.87-.27,13.3-.39,5.63-.15,11.26-.28,16.9-.41,.24,0,.48-.02,.72,0,.4,.03,.68,.27,.78,.64,.1,.34,.13,.7,.15,1.06,.08,1.61,.17,3.23,.21,4.85,.02,.82,.13,1.67-.29,2.52Zm-1.59-10.24c-1.32,.04-2.64,.05-3.95,.08-42.57,.88-85.19,1.74-127.78,2.52-15.02,.28-30.07,.42-45.07,.73-1.19,.02-2.38,.17-3.56-.25-.46-.16-1.04,.04-1.8,.09-.06-.27-.13-.51-.19-.73-.12,.01-.25,.03-.37,.03-.02,0,.02-1.76,.06-3.19-.03-.44-.06-.88-.08-1.32,0-.05,0-.1,0-.15-.06-.01-.11-.02-.17-.03-.14-.03-.05-2.1,.03-3.57-.24-.95-.18-1.94-.21-2.91-.09-3.29-.17-6.58-.63-9.85-.19-1.3-.24-2.62-.32-3.93-.27-4.24-.55-8.49-.77-12.73-.11-2.03-.1-4.07-.17-6.11-.03-.9-.07-1.79-.15-2.69-.09-1.02,.21-1.82,1-2.55,1.71-1.58,3.35-3.26,5.01-4.9,.89-.89,1.78-1.78,2.65-2.68,5.57-5.72,11.07-11.51,16.56-17.3,2.58-2.72,4.54-3.24,8.16-3.26,1.32-.01,2.64,0,3.96-.02,4.55-.09,9.11-.21,13.66-.3,6.47-.13,12.94-.23,19.42-.36,8.15-.17,16.3-.37,24.45-.54,1.92-.04,3.84-.05,5.75-.08,4.67-.08,9.35-.15,14.02-.24,8.82-.17,18.05-.37,27.03-.57,7.17-.16,16.92-2.64,22.49,2.88,3.63,3.6,7.25,7.21,10.86,10.84,3.48,3.5,8.63,7.22,11.25,11.37,2.19,3.46,.86,9.88,.82,14.03-.05,5.21-.1,10.42-.12,15.63-.02,3.23,1.54,22-1.84,22.09Zm5.02-53.62c-.02,.72-.1,1.44-.23,2.14-.06,.32-.3,.61-.45,.88-.75,0-1-.5-1.32-.93-.53-.72-1.01-1.44-1.92-1.81-.52-.21-.93-.74-1.34-1.16-2.26-2.31-4.5-4.65-6.75-6.96-.75-.77-1.52-1.53-2.28-2.29-1.69-1.69-3.4-3.38-5.08-5.08-1.3-1.32-2.57-2.67-3.87-3.99-1.09-1.11-2.2-2.21-3.3-3.31-.38-.38-.74-.77-1.15-1.21,.03-.06,.06-.11,.09-.17-.63-.39-1.25-.78-1.88-1.17-.25,.01-.49,.02-.73,.03-2.4,.03-4.8,.03-7.19,.22-3.48,.27-6.95,.09-10.43,.21-3.41,.11-6.82,.28-10.24,.35-3.18,.07-6.35,.04-9.53,.07-4.74,.05-9.47,.09-14.21,.19-5.57,.11-11.15,.3-16.72,.42-3.95,.09-7.91,.12-11.86,.2-4.86,.1-9.71,.23-14.57,.32-2.7,.05-5.4,.02-8.09,.12-8.33,.3-16.66,.2-24.99,.38-1,.02-1.99,0-2.99,0-.88,.75-1.77,1.49-2.66,2.23,.03-.02-.56,.54-.91,.79-2.08,2.11-4.15,4.22-6.24,6.31-.31,.31-.69,.55-1.05,.81,.01-.16,.06-.3,.11-.44-.04,.04-.09,.07-.13,.11-.03,.08-.04,.17-.07,.25-.03,.08-.11,.18-.2,.27,.08-.03,.14-.07,.22-.09-.02,.1-.03,.21-.09,.28-1.1,1.34-2.36,2.53-3.61,3.78,.07,.05,.14,.11,.22,.15-.16,.16-.33,.32-.51,.46-.2,.17-.39,.34-.59,.51-.27,.23-.54,.46-.82,.7-.76,.89-1.52,1.77-2.26,2.66-2.44,2.88-5.32,6.75-9.02,8.16-.72,.79-1.43,1.58-2.15,2.37-.36,.4-.72,.82-1.46,.78-.09-.21-.26-.47-.29-.73-.11-1.07-.19-2.15-.24-3.22-.01-.22,.05-.5,.18-.66,.31-.4,.33-.75,0-1.12-.38-.41-.23-.91-.26-1.37-.17-2.96-.15-2.94,1.78-5.11,3.26-3.67,6.51-7.34,9.75-11.03,2.8-3.2,5.55-6.44,8.36-9.63,3.76-4.27,7.56-8.5,11.33-12.76,2.82-3.18,5.62-6.38,8.43-9.57,2.34-2.65,4.68-5.29,7.02-7.94,1.94-2.2,3.86-4.41,5.8-6.61,1.35-1.53,2.7-3.05,4.06-4.57,2.19-2.46,4.41-4.89,6.54-7.41,.56-.66,1.15-1.14,1.85-1.39,.12-.26,.26-.5,.42-.73h0c.07-.82,.49-1.38,.95-1.92,2.06-2.42,4.1-4.84,6.17-7.25,.86-1,1.81-1.92,2.67-2.92,3.06-3.53,6.09-7.09,9.15-10.62,.59-.68,1.24-1.3,1.82-1.99,.58-.68,1.18-1.36,1.65-2.11,.57-.91,1.4-1.49,2.31-1.93,.84-.4,1.81-.4,2.6,.09,1.11,.69,2.24,1.35,3.18,2.32,3.49,3.63,7.04,7.2,10.55,10.81,2.84,2.92,5.66,5.86,8.48,8.8,.41,.43,.76,.93,1.16,1.37,.6,.67,1.18,1.36,1.83,1.98,2.05,1.93,4.13,3.82,6.2,5.73,2.64,2.44,5.28,4.87,7.91,7.33,2.05,1.92,4.07,3.89,6.12,5.82,1.7,1.61,3.41,3.19,5.11,4.79,.83,.78,1.65,1.56,2.48,2.35,2.17,2.07,4.33,4.14,6.5,6.2,2.3,2.18,4.6,4.36,6.91,6.54,2.53,2.39,5.06,4.77,7.58,7.16,.74,.7,1.49,1.39,2.21,2.11,3.2,3.15,6.34,6.37,9.61,9.45,2.17,2.05,4.36,4.09,6.71,5.97,1.96,1.57,3.7,3.4,5.48,5.17,.54,.54,.76,1.41,1.32,1.89,.9,.77,1.01,1.68,.99,2.73-.06,2.16-.05,4.31-.11,6.47Z"/><path class="e" d="M11.66,127.58c.03-.11,.07-.21,.08-.32,0-.05-.02-.11-.03-.16-.05,.06-.14,.13-.15,.19,0,.1,.06,.19,.1,.29Z"/><path class="e" d="M218.38,116.78c-.1-.01-.19-.03-.29-.03-.01,0-.02,.08-.03,.12,.1,.01,.19,.02,.29,.03,.01,0,.02-.07,.04-.11Z"/><polygon class="e" points="11.3 133.46 11.27 133.34 11.21 133.43 11.3 133.46"/><polygon class="e" points="11.22 136.67 11.16 136.6 11.15 136.72 11.22 136.67"/><path class="e" d="M176.61,24.17l-.25-.03s.07,.09,.11,.1c.04,0,.09-.04,.14-.07Z"/><path class="e" d="M175.11,23.89l.12-.09-.1-.12-.17,.16,.14,.05Z"/><polygon class="e" points="198.31 105.77 198.43 105.84 198.45 105.73 198.31 105.77"/><path class="e" d="M160.49,20.59c.37-.29,.74-.25,1.11,0v-.04h-1.13l.02,.04Z"/><path class="d" d="M434.37,88.73c-.19,0-.38-.05-.56-.1-.74,.63-1.48,1.26-2.22,1.88-.3,.25-.6,.52-.9,.8-.04,.08-.08,.16-.14,.23-.4,.46-.81,.91-1.23,1.36,.24-.2,.49-.4,.74-.6,.11-.09,.22-.18,.34-.26v.26c-.16,.16-.33,.32-.51,.46-.2,.17-.39,.34-.59,.51-.44,.38-.89,.76-1.33,1.13-.33,.38-.61,.78-.66,1.32,.36-.26,.74-.5,1.05-.81,2.09-2.09,4.16-4.2,6.24-6.31-.1,.08-.19,.13-.23,.13Z"/><path class="d" d="M150.72,97.14h-.02c-.09,0-.42,0-.51-.01-.02,0-.13,0-.17-.01h-.02s-.01-.02-.01-.03c-.04-.09-.03-.21-.03-.31,0,0,.09-.01,.22-.02,.02-.08,.05-.16,.05-.24,.07,0,.15,0,.22,0-.03-.08-.03-.16,.04-.25,.23-.02,.45-.03,.68-.03,.26,0,.52,0,.78-.01,.49,0,.98,0,1.46-.01-.1-.03-.2-.05-.3-.05-1.36,0-2.72,.03-4.08,.04h0c.07,.08,.13,.16,.19,.24,.1,.14,.19,.28,.28,.42-.23,.02-.45,.03-.68,.03h-.78c-.21,.02-.42,.02-.62,.02v.42c.76,.02,1.53,.05,2.29,.05,.46,0,.91-.02,1.37-.05-.22,0-.36-.01-.36-.02,0-.06-.01-.11-.02-.17Z"/><path class="d" d="M426.21,96.34c-.89,1.18-1.83,2.32-2.77,3.46,.03,.03,.07,.05,.11,.07,1.25-1.25,2.51-2.44,3.61-3.78,.06-.07,.07-.18,.09-.28-.41,.09-.73,.28-1.03,.53Z"/><path class="d" d="M11.66,127.58c-.04-.1-.1-.19-.1-.29,0-.06,.09-.13,.15-.19,.01,.05,.04,.11,.03,.16-.02,.11-.05,.21-.08,.32Z"/><path class="d" d="M160.48,20.54h1.14c.06,.34,0,.6-.41,.44-.26-.1-.48-.29-.72-.44Z"/><path class="d" d="M218.38,116.78s-.02,.11-.04,.11c-.1,0-.19-.01-.29-.03,.01-.04,.02-.12,.03-.12,.1,0,.19,.02,.29,.03Z"/><polygon class="d" points="11.3 133.46 11.21 133.43 11.27 133.34 11.3 133.46"/><polygon class="d" points="11.22 136.67 11.15 136.72 11.16 136.6 11.22 136.67"/><path class="d" d="M176.6,24.17s-.1,.07-.14,.07c-.04,0-.08-.06-.11-.1,.08,.01,.17,.02,.25,.03Z"/><path class="d" d="M175.11,23.89l-.14-.05,.17-.16,.1,.12-.12,.09Z"/><polygon class="d" points="198.31 105.77 198.45 105.73 198.43 105.84 198.31 105.77"/><path class="e" d="M65.87,155.56c-.01-.64,.02-1.29,.09-1.93,.02-.33,.06-.67,.12-1-.02-1.15,.04-2.33,.19-3.3-.17-1.37-.18-3.04-.03-4.44-.07-.43-.12-.87-.14-1.31l-.05-1.33c-.01-.64,.02-1.29,.09-1.93,.03-.53,.11-1.05,.22-1.56-.19-1.97-.07-4.41,.33-5.82l.05-3.47c0-.28-.01-1.85,.19-3.16,0-.53,.02-1.06,.06-1.57-1.53,.09-2.92,.2-4.31,.24-2.21,.07-4.43,.1-6.64,.13-1.56,.02-3.11,.04-4.67,.04-1.38,0-2.76-.02-4.13,0-.33,0-.66,.14-.96,.22-.02,1.18-.01,2.25-.05,3.32-.05,1.5-.16,2.99-.2,4.49-.15,5.44-.28,10.89-.44,16.33-.02,.66-.05,1.32-.19,1.96-.26,1.26-.15,2.51-.05,3.76,.07,.86,.4,1.12,1.27,1.2,.24,.02,.48,0,.72,0,4.31,.06,8.63,.12,12.94,.18,1.5,.02,3,.04,4.49,.09,.41,.01,.79,0,1.12-.18-.01-.33-.02-.65-.03-.98Zm-.22-27.7c-.19,2.87-.4,5.73-.59,8.6-.1,1.49-.17,2.99-.26,4.48h.09c-.1,2.94-.21,5.87-.28,8.8-.03,1.38,.02,2.75,.01,4.13-.01,1.27-.23,1.55-1.42,1.56-1.73,.01-3.47-.08-5.2-.1-1.55-.02-3.11,0-4.66,0-1.86-.02-3.71-.04-5.57-.09-.58-.02-.88-.33-.91-.91-.03-.59,.04-1.19,.05-1.79,.02-1.37,.03-2.75,.06-4.12,.04-1.62,.11-3.23,.15-4.84,.03-1.26,.04-2.51,.05-3.77,0-.3-.04-.6-.03-.9,.14-3.71,.28-7.42,.42-11.13,0-.12,.01-.24,.03-.36,.08-.61,.31-.88,.9-.92,1.08-.08,2.15-.14,3.23-.14,3.35,0,6.71,.02,10.06,.04,.9,0,1.8,.01,2.7,.08,.98,.07,1.24,.39,1.17,1.39Z"/><path class="e" d="M154.82,151.03c-.84-.88-1.04-1.73-.85-2.76,.15-.81,.05-1.67,.08-2.51,.09-2.93,.14-5.86,.27-8.79,.14-3.1,.35-6.2,.52-9.31,.06-1.08,.11-2.15,.18-3.23,.05-.73,.36-1.07,1-.95,1.32,.26,2.61,.12,3.93-.05,1.18-.15,2.39,0,3.59-.03,.71-.02,1.43-.11,2.14-.16,.84-.05,1.67-.1,2.51-.13,1.25-.04,2.51-.07,3.76-.1,.18,0,.39-.09,.53-.02,.91,.44,1.88,.21,2.85,.19,.43,1.29,.4,2.54,.36,3.79-.02,.71,0,1.43,0,2.14,0,.66,.08,1.32,.03,1.97-.32,4.66-.25,9.33-.21,14,.01,1.56-.02,3.11-.04,4.67-.01,.74-.32,1.1-1.05,1.24-.35,.07-.71,.07-1.07,.07-2.46,0-4.91-.02-7.37-.03-3.23,0-6.46,0-9.7,.01-.53,0-1.06-.01-1.46-.02Zm19.64-.96c.05-.94,.11-1.65,.13-2.37,.06-3.47,.1-6.94,.14-10.42,.05-3.71,.1-7.42,.13-11.13,0-.53,.11-1.08-.31-1.64-.29,0-.64-.01-.99-.01-.47,0-.95,.02-1.42,0-1.73-.07-3.48-.29-5.2-.18-2.16,.14-4.3,.08-6.46,.11-1.48,.02-2.96,.18-4.47,.28-.08,.34-.17,.57-.19,.8-.13,2.33-.27,4.66-.38,6.99-.1,2.27-.15,4.55-.24,6.82-.11,2.99-.23,5.99-.33,8.98-.02,.52-.16,1.08,.23,1.58,.47,.3,1.01,.26,1.55,.27,1.92,0,3.83,.02,5.75,.02,2.7,0,5.39-.01,8.09-.03,1.24,0,2.49-.05,3.95-.08Z"/><path class="e" d="M74.47,98.84c-1.61,.1-3.23-.01-4.83,.14-.5,.05-1.02,.04-1.52-.04-.55,0-1.1,0-1.65,.01l-.36,.61c-.08,1.94-.16,3.88-.22,5.83-.02,.6-.02,1.2,.04,1.79,.03,.27,.22,.51,.42,.95,.21-.35,.4-.53,.41-.73,.06-.71,.07-1.43,.08-2.15,.04-1.49,.04-2.99,.11-4.48,.03-.71,.31-.95,1-1.05,.35-.05,.72-.06,1.07-.06,1.62-.02,3.23-.04,4.85-.06,.3,0,.62-.04,.89,.07,.24,.1,.47,.34,.61,.57,.11,.19,.1,.46,.1,.7-.03,2.27-.06,4.55-.11,6.82,0,.34-.17,.67-.26,1-1.13,.29-2.21,.13-3.28,.13-1.74,0-3.47,0-5.21,0-.29,0-.62,.01-.67,.46,.15,.07,.3,.21,.45,.21,2.93,0,5.86,0,8.79-.02,.28,0,.56-.18,.91-.3,.06-.48,.14-.94,.16-1.41,.09-2.39,.19-4.78,.24-7.17,.04-1.87-.15-1.93-1.99-1.82Z"/><path class="e" d="M298.56,118.36c-.4-.36-.95-.54-1.74-.55-1.61-.02-3.23-.03-4.84,.06-.68,.04-1.38,.06-2.07,.22-.02,.8-.04,1.6-.06,2.4,.02,.35,.03,.69,.03,1.04v.26c0,.84-.05,1.69-.15,2.52v.02c0,.05,0,.1,0,.15,.24,1.5,.25,3.5,.06,5.09,.21,.11,.46,.19,.8,.19,.83,.01,1.67-.1,2.5-.11,.38,0,.79-.03,1.14,.06,1.01-.09,1.95-.1,2.2-.1,.22,0,.84,0,1.56,.02h0c.09,0,.26,0,.45,0,.02-1.3,.08-4.21,.15-6.44-.2-1.47-.21-3.34-.03-4.85Zm-.91,10.07c-2.22,.12-4.42,.24-6.62,.33-.22,0-.44-.13-.63-.19-.23-1.75-.04-7.31,.33-9.41,1.64-.57,3.39-.4,5.1-.48,.45-.02,.91,.14,1.42,.22,.06,1.77,.62,3.38,.42,5.08-.07,.57,.11,1.18,.23,1.77,.17,.83,.29,1.65-.25,2.67Z"/><path class="e" d="M370.43,119.85c.04-.84,.07-1.68,.01-2.51-.04-.5-.16-.79-.41-.95-2.11,.03-6.31,0-8-.01,.01,3.75,.02,7.55,.03,11.52,2.73,.1,5.3-.09,7.86-.23,.21-.01,.41-.19,.58-.28-.13-.91-.35-1.72-.34-2.53,.03-1.67,.19-3.34,.27-5.01Zm-1.31,6.64c-1.97,.51-3.98,.4-6.24,.35-.02-.93-.09-1.64-.04-2.34,.16-2.31,.16-4.64,.52-7.01,.47,0,.82-.02,1.16,.02,.6,.07,1.17,.08,1.77-.1,.93-.26,1.88-.21,2.87,.04,.43,1,.2,2.03,.21,3.03,0,.96-.04,1.92-.09,2.87-.05,1.01,.19,2.03-.16,3.13Z"/><path class="e" d="M333.81,125.65c.03-.15,.05-.31,.08-.46-.26-1.24-.31-2.51-.09-3.81,0-.01,0-.02,0-.04-.16-1.31-.16-2.89-.03-4.25-2.52,.02-5.04,.04-7.55,.09-.19,0-.38,.04-.56,.09,0,.35-.02,.73-.02,1.13l.1,.05c0,.7-.01,1.42-.03,2.13,0,.18-.02,.36-.03,.54,0,1.03-.04,2.06-.07,3.09-.04,1.55-.09,3.1-.16,4.65,.46,0,.88,.03,1.29,.01,1.79-.06,3.59-.13,5.38-.2,.52-.02,1.03-.05,1.55-.1,0-.05,0-.09,0-.14v-.26c0-.84,.05-1.69,.15-2.52Zm-1.05,.91c-.05,.35-.19,.68-.28,.98-1.22,.31-4.62,.36-6.12,.11-.07-.14-.2-.29-.21-.45-.09-2.93,.24-5.84,.52-8.71,1.24-.42,4.69-.46,6.18-.08,.1,.88,.04,7.32-.09,8.15Z"/><path class="e" d="M223.53,143.39l.04-.02c.51-.18,1.03-.3,1.56-.38-.12-.35-.11-.73,.15-1.14,.02-.03,0-.12-.04-.15-.66-.66-.34-1.47-.34-2.22,0-.95,.14-1.91,.16-2.86,.09-4.54,.17-9.08,.22-13.62,0-.7,.06-1.43-.38-2.01-1.74,.39-3.42,.76-5.4,1.2-.06,.36-.18,.81-.2,1.27-.1,2.39-.16,4.78-.26,7.17-.16,3.76-.35,7.52-.52,11.28-.04,.83-.11,1.67,.32,2.57,.11,.02,.23,.06,.35,.09,.25-.05,.51-.09,.76-.13,0,0,0-.02,.02-.03,.14-.14,.35-.22,.53-.29,.36-.15,.83-.25,1.27-.33,.11-.13,.22-.27,.35-.31,.48-.11,.95-.15,1.41-.09Zm-3.75-.52c-.47-.52-.34-1.01-.31-1.48,.11-1.37,.26-2.74,.32-4.11,.07-1.55,.04-3.1,.08-4.65,.02-.83,.1-1.67,.14-2.5,.02-.41,.08-.83,.03-1.24-.21-1.74,.07-3.46,.18-5.19,.04-.54,.3-.92,.82-1.05,.98-.25,1.96-.46,3.06-.72,.06,.41,.13,.69,.12,.96-.05,4.3-.11,8.6-.18,12.9-.03,1.73-.12,3.46-.17,5.19-.02,.69-.38,1.12-1.04,1.28-1.04,.24-2.06,.57-3.05,.6Z"/><path class="e" d="M400.9,117.27c.23,.17,.37,.24,.47,.36,.02,.03-.1,.26-.16,.26-.22,0-.43-.05-.65-.09l.34-.53Z"/></g></g></g></svg>