<?xml version="1.0" encoding="UTF-8"?><svg xmlns="http://www.w3.org/2000/svg" viewBox="0 0 268.75 236.38"><defs><style>.d{stroke-width:2.44px;}.d,.e{fill:none;stroke:#000;stroke-linecap:round;stroke-linejoin:round;}.e{stroke-width:2.76px;}</style></defs><g id="a"/><g id="b"><g id="c"><path class="e" d="M1.38,193.36H267.37"/><path class="e" d="M1.38,235c8.86-3.49,19.11-4.19,24.66-13.3,18.43,13.54,29.27,18.98,55,1.02,16.71,14.52,34.45,16.11,52.8-.45,17.11,13.94,34.85,17.49,53.28,.04,17.68,13.01,35.91,17.93,54.4-.8,6.61,8.15,16.49,10.27,25.85,13.48"/><g><path class="e" d="M206.94,1.38c0,59.71,.01,119.42-.03,179.13,0,3.52,.68,7.14-.93,10.54"/><path class="e" d="M252.91,129.74c-14.69,.91-28.27-1.63-39.28-12.44-4.37-4.28-8.93-4.21-13.39-.02-11.1,10.44-24.51,13.55-39.27,12.45"/><path class="e" d="M245.25,92.38c-12.44-1.3-24.7-2.4-33.77-13.2-2.54-3.02-7.81-1.93-11.26,1.68-8.09,8.48-18.36,11.01-29.67,10.56"/><path class="e" d="M237.59,54.06c-9.15-.43-17.62-2.71-24.92-8.6-3.72-3.01-7.73-3.01-11.45,0-7.29,5.89-15.77,8.17-24.92,8.6"/><path class="e" d="M229.93,17.66c-6.35,1.55-11.59-1.26-16.21-4.88-4.8-3.76-8.6-3.48-13.61-.1-4.17,2.82-8.76,5.74-14.24,5.94"/></g><g><path class="d" d="M108.49,81.12c-4.73,.24-7.21,3.75-9.98,6.84-5.25,5.84-6.94,13.16-8.57,20.51-1.08,4.86-2.25,9.7-3.42,14.53-.81,3.35-1.84,4.27-5.41,4.55-9.12,.7-18.26,.13-27.38,.29-2.19,.04-4.38,.09-6.56-.01-7.33-.35-10.71,4.86-10.83,11.13-.06,3.32-.04,6.65,0,9.97,.04,4.04,4.4,9.51,8.27,10.21,1.09,.2,2.27-.23,3.41-.23,13.6-.02,27.19-.06,40.79,.02,4.49,.03,8.78-.57,12.85-2.57,.88-.43,1.89-.59,2.84-.88"/><path class="d" d="M39.75,129.28c-4.85-3.3-11.18-.58-13.18,5.39-.92,2.74,0,5.17,.37,7.71,.62,4.19,2.17,8.21,2,12.54-.15,3.87-1.02,7.45-3.45,10.54"/><path class="d" d="M108.78,82.12c-.66,2.94,.15,6.19,3.4,7.81,5.69,3.25,13.81,5.69,13.81,12.19,0,8.94-11.37,4.87-17.5,3.51"/><path class="d" d="M106.21,104.35c1.11,.02,2.36,.71,2.19,1.55-1.16,5.71,2.25,12.11,3.21,17.66,1.25,7.23,1.49,14.64,.71,21.94"/><path class="d" d="M124.69,141.83c-9.33,2.18-12.74,4.6-18.79,11.65-1.03,1.2-1.38,2.31-.56,3.73,.51,.88,.29,1.89,.29,2.84,.01,11.02,0,22.04,0,33.06"/><path class="d" d="M44.88,159.49c-.72,1.15-.56,2.44-.57,3.7-.05,9.97-.1,19.95-.14,29.92"/><path class="d" d="M58,159.77c.58,5.01,.02,10.05-1.13,14.94s-3.3,9.57-4.43,14.48"/><path class="d" d="M125.43,142.64c.64,7.26,.18,14.7,.18,21.98"/></g></g></g></svg>